<svg aria-hidden="true" style="position: absolute; width: 0; height: 0; overflow: hidden;" version="1.1" xmlns="http://www.w3.org/2000/svg" xmlns:xlink="http://www.w3.org/1999/xlink">
<defs>
<symbol id="icon-principle_astronaut" viewBox="0 0 32 32">
<path fill="#2196f3" style="fill: var(--color1, #2196f3)" d="M31.974 4.524c-0.063-0.193-0.229-0.333-0.43-0.363l-1.91-0.278-0.855-1.731c-0.179-0.365-0.777-0.365-0.956 0l-0.855 1.731-1.91 0.278c-0.201 0.029-0.367 0.17-0.431 0.363-0.062 0.193-0.011 0.405 0.135 0.547l1.383 1.348-0.326 1.903c-0.034 0.2 0.048 0.402 0.212 0.522 0.166 0.121 0.382 0.135 0.562 0.040l1.709-0.899 1.709 0.899c0.078 0.041 0.164 0.061 0.249 0.061 0.11 0 0.221-0.034 0.314-0.102 0.164-0.119 0.246-0.322 0.212-0.522l-0.326-1.903 1.383-1.348c0.145-0.142 0.197-0.354 0.135-0.547zM29.511 5.851c-0.125 0.122-0.183 0.299-0.153 0.472l0.191 1.114-1-0.526c-0.078-0.041-0.163-0.061-0.249-0.061s-0.17 0.020-0.249 0.061l-1.001 0.526 0.191-1.114c0.030-0.173-0.028-0.349-0.153-0.472l-0.81-0.789 1.119-0.163c0.174-0.025 0.324-0.134 0.402-0.292l0.5-1.013 0.5 1.013c0.078 0.157 0.228 0.267 0.402 0.292l1.119 0.163-0.809 0.789z"></path>
<path fill="#2196f3" style="fill: var(--color1, #2196f3)" d="M26.134 20.522h-1.067v1.067h1.067v-1.067z"></path>
<path fill="#2196f3" style="fill: var(--color1, #2196f3)" d="M26.134 22.656h-1.067v1.067h1.067v-1.067z"></path>
<path fill="#2196f3" style="fill: var(--color1, #2196f3)" d="M27.2 21.589h-1.067v1.067h1.067v-1.067z"></path>
<path fill="#2196f3" style="fill: var(--color1, #2196f3)" d="M25.067 21.589h-1.067v1.067h1.067v-1.067z"></path>
<path fill="#2196f3" style="fill: var(--color1, #2196f3)" d="M22.4 26.389h-1.067v1.067h1.067v-1.067z"></path>
<path fill="#2196f3" style="fill: var(--color1, #2196f3)" d="M22.4 28.522h-1.067v1.067h1.067v-1.067z"></path>
<path fill="#2196f3" style="fill: var(--color1, #2196f3)" d="M23.467 27.456h-1.067v1.067h1.067v-1.067z"></path>
<path fill="#2196f3" style="fill: var(--color1, #2196f3)" d="M21.333 27.456h-1.067v1.067h1.067v-1.067z"></path>
<path fill="#2196f3" style="fill: var(--color1, #2196f3)" d="M16 24.256h-1.067v1.067h1.067v-1.067z"></path>
<path fill="#2196f3" style="fill: var(--color1, #2196f3)" d="M16 26.389h-1.067v1.067h1.067v-1.067z"></path>
<path fill="#2196f3" style="fill: var(--color1, #2196f3)" d="M17.067 25.322h-1.067v1.067h1.067v-1.067z"></path>
<path fill="#2196f3" style="fill: var(--color1, #2196f3)" d="M14.933 25.322h-1.067v1.067h1.067v-1.067z"></path>
<path fill="#2196f3" style="fill: var(--color1, #2196f3)" d="M5.867 6.122h-1.067v1.067h1.067v-1.067z"></path>
<path fill="#2196f3" style="fill: var(--color1, #2196f3)" d="M5.867 8.255h-1.067v1.067h1.067v-1.067z"></path>
<path fill="#2196f3" style="fill: var(--color1, #2196f3)" d="M6.933 7.189h-1.067v1.067h1.067v-1.067z"></path>
<path fill="#2196f3" style="fill: var(--color1, #2196f3)" d="M4.8 7.189h-1.067v1.067h1.067v-1.067z"></path>
<path fill="#212121" style="fill: var(--color2, #212121)" d="M24.715 14.159c-0.287-0.388-0.709-0.637-1.188-0.705-0.481-0.068-0.956 0.058-1.34 0.352l-1.252 0.96-1.898 1.417-1.358-0.541c2.421-1.086 4.114-3.508 4.114-6.32 0-3.823-3.123-6.933-6.961-6.933s-6.961 3.11-6.961 6.933c0 1.386 0.414 2.674 1.12 3.758l-2.764-0.024c-0.002 0-0.003 0-0.005 0-0.009 0-0.015 0.004-0.023 0.005-0.053 0.002-0.105 0.013-0.155 0.031-0.013 0.005-0.026 0.008-0.038 0.013-0.006 0.003-0.013 0.003-0.019 0.006l-3.233 1.596c-0.001 0-0.001 0-0.001 0.001l-1.893 0.911c-0.021 0.009-0.042 0.021-0.063 0.035-0.755 0.502-1.012 1.489-0.598 2.295 0.22 0.429 0.595 0.745 1.056 0.889 0.178 0.055 0.359 0.083 0.539 0.083 0.29 0 0.577-0.071 0.839-0.211l1.388-0.738 2.264-1.169 1.357-0.008-5.442 5.416c-0.001 0.001-0.001 0.001-0.002 0.001l-1.339 1.333c-0.316 0.315-0.49 0.732-0.49 1.178s0.174 0.863 0.49 1.179c0.325 0.323 0.752 0.485 1.179 0.485s0.854-0.162 1.18-0.485l1.314-1.309 1.741-1.3 0.901 0.897-1.762 1.754c-0 0.001-0.001 0.001-0.002 0.001l-1.339 1.333c-0.316 0.315-0.49 0.732-0.49 1.178s0.174 0.863 0.49 1.179c0.325 0.323 0.753 0.485 1.18 0.485s0.855-0.162 1.18-0.485l3.482-3.467c0.001-0.001 0.001-0.001 0.001-0.002l1.010-1-0.004-0.004c0.006-0.006 0.015-0.009 0.022-0.015l5.166-5.658 3.471 0.494c0.025 0.004 0.050 0.005 0.075 0.005 0.065 0 0.127-0.015 0.187-0.038 0.018-0.006 0.033-0.015 0.050-0.023 0.019-0.010 0.039-0.015 0.058-0.027l3.213-2.133c0.012-0.008 0.018-0.021 0.029-0.029 0.013-0.010 0.029-0.014 0.041-0.026l1.271-1.191c0.662-0.62 0.753-1.635 0.212-2.362zM2.13 17.77c-0.173 0.093-0.37 0.111-0.558 0.052-0.187-0.058-0.338-0.186-0.427-0.358-0.161-0.314-0.068-0.696 0.214-0.902l1.314-0.632 0.449 1.312-0.992 0.527zM5.628 15.942l-1.548 0.8-0.439-1.283 2.027-1.001-0.040 1.484zM20.727 9.322c0 0.918-0.219 1.785-0.599 2.559l-4.181-1.899c-0.044-0.573-0.341-1.075-0.788-1.388l1.464-4.86c2.378 0.756 4.105 2.974 4.105 5.588zM8.938 9.322c0-3.235 2.644-5.867 5.894-5.867 0.253 0 0.5 0.021 0.745 0.052l-1.432 4.754c-0.019-0.001-0.037-0.006-0.057-0.006-1.033 0-1.873 0.837-1.873 1.867s0.84 1.867 1.873 1.867c0.694 0 1.294-0.383 1.618-0.945l3.862 1.755c-1.075 1.446-2.795 2.39-4.737 2.39-3.25 0-5.894-2.632-5.894-5.867zM14.894 10.122c0 0.441-0.362 0.8-0.806 0.8s-0.806-0.359-0.806-0.8c0-0.441 0.362-0.8 0.806-0.8s0.806 0.359 0.806 0.8zM2.465 25.146c-0.236 0.234-0.619 0.234-0.854 0.001-0.114-0.114-0.176-0.263-0.176-0.423s0.062-0.309 0.176-0.421l0.962-0.958 0.851 0.848-0.959 0.955zM5.679 28.88c-0.236 0.234-0.619 0.235-0.855 0.001-0.114-0.114-0.176-0.263-0.176-0.423s0.062-0.309 0.176-0.421l0.963-0.959 0.852 0.848-0.96 0.955zM9.16 25.411c-0.001 0-0.001 0-0.002 0.001l-1.765 1.76-0.852-0.848 1.763-1.755c0 0 0 0 0-0s0.001-0.001 0.002-0.001c0.040-0.040 0.065-0.088 0.090-0.135 0.007-0.014 0.020-0.026 0.026-0.040 0.017-0.041 0.019-0.085 0.026-0.129 0.003-0.025 0.014-0.047 0.014-0.073 0-0.036-0.013-0.070-0.020-0.106-0.006-0.032-0.006-0.065-0.019-0.095-0.020-0.050-0.055-0.094-0.091-0.138-0.010-0.012-0.014-0.027-0.025-0.038 0 0 0 0-0.001 0s-0.001-0.002-0.001-0.002l-1.607-1.6c-0.017-0.017-0.039-0.024-0.058-0.038-0.028-0.022-0.055-0.042-0.087-0.058-0.030-0.015-0.061-0.024-0.093-0.033-0.034-0.010-0.067-0.017-0.103-0.020-0.033-0.002-0.063 0.001-0.095 0.005-0.036 0.004-0.069 0.009-0.104 0.020-0.034 0.011-0.063 0.027-0.094 0.045-0.020 0.011-0.042 0.015-0.061 0.029l-1.773 1.324-0.901-0.897 2.399-2.386 4.361 4.289-0.928 0.919zM15.979 18.394c-0.015-0.002-0.030 0.004-0.045 0.003-0.039-0.002-0.076 0.001-0.115 0.007-0.030 0.005-0.059 0.011-0.088 0.021-0.034 0.012-0.065 0.028-0.097 0.047-0.030 0.018-0.057 0.037-0.083 0.061-0.013 0.011-0.028 0.017-0.040 0.029l-4.698 5.146-4.328-4.257 2.833-2.818c0.209-0.208 0.21-0.546 0.002-0.755-0.105-0.105-0.243-0.157-0.381-0.156v-0.001l-2.219 0.013 0.028-1.607 3.104 0.027c1.265 1.294 3.029 2.101 4.981 2.101 0.437 0 0.864-0.045 1.279-0.123 0.040 0.032 0.079 0.065 0.13 0.085l2.41 0.96 0.152 0.758 0.178 0.885-3.003-0.427zM20.020 18.572l-0.313-1.558 1.446-1.080 0.947 1.257-2.080 1.381zM23.774 15.741l-0.838 0.785-0.931-1.236 0.831-0.637c0.155-0.119 0.351-0.168 0.543-0.143 0.193 0.027 0.364 0.128 0.48 0.284 0.217 0.292 0.18 0.699-0.085 0.947z"></path>
<path fill="#212121" style="fill: var(--color2, #212121)" d="M13.602 18.544l-2.143-2.133c-0.207-0.207-0.545-0.207-0.753 0l-2.142 2.133c-0.1 0.101-0.157 0.236-0.157 0.378s0.056 0.278 0.157 0.378l2.142 2.133c0.104 0.103 0.241 0.155 0.377 0.155s0.273-0.052 0.376-0.155l2.143-2.133c0.1-0.1 0.157-0.236 0.157-0.378s-0.057-0.278-0.157-0.378zM11.083 20.303l-1.387-1.381 1.387-1.381 1.387 1.381-1.387 1.381z"></path>
<path fill="#212121" style="fill: var(--color2, #212121)" d="M17.164 5.071l-0.258 1.036c0.071 0.018 1.738 0.452 1.738 2.149h1.067c-0-2.017-1.666-2.965-2.547-3.185z"></path>
<path fill="#212121" style="fill: var(--color2, #212121)" d="M19.711 9.322h-1.067v1.067h1.067v-1.067z"></path>
</symbol>
<symbol id="icon-header_mobileclose--clouse" viewBox="0 0 32 32">
<path d="M31.439 3.166l-3.166-3.166-12.553 12.553-12.553-12.553-3.166 3.166 12.553 12.553-12.553 12.553 3.166 3.166 12.553-12.553 12.553 12.553 3.166-3.166-12.553-12.553 12.553-12.553z"></path>
</symbol>
<symbol id="icon-modal_button--clouse" viewBox="0 0 32 32">
<path d="M26.667 7.303l-1.97-1.97-7.808 7.808-7.808-7.808-1.97 1.97 7.808 7.808-7.808 7.808 1.97 1.97 7.808-7.808 7.808 7.808 1.97-1.97-7.808-7.808 7.808-7.808z"></path>
</symbol>
<symbol id="icon-envelope" viewBox="0 0 32 32">
<path fill="#757575" style="fill: var(--color3, #757575)" d="M29 4.571h-26c-1.654 0-3 1.282-3 2.857v17.143c0 1.576 1.346 2.857 3 2.857h26c1.654 0 3-1.282 3-2.857v-17.143c0-1.576-1.346-2.857-3-2.857zM29 6.476c0.136 0 0.265 0.027 0.383 0.074l-13.383 11.047-13.383-11.047c0.118-0.047 0.247-0.074 0.383-0.074h26zM29 25.524h-26c-0.552 0-1-0.427-1-0.952v-16.009l13.345 11.015c0.188 0.155 0.422 0.233 0.655 0.233s0.467-0.077 0.655-0.233l13.345-11.015v16.009c0 0.526-0.448 0.952-1 0.952z"></path>
</symbol>
<symbol id="icon-facebook" viewBox="0 0 32 32">
<path fill="#afb1b8" style="fill: var(--color4, #afb1b8)" d="M21.33 5.313h2.921v-5.088c-0.504-0.069-2.237-0.225-4.256-0.225-4.212 0-7.097 2.649-7.097 7.519v4.481h-4.648v5.688h4.648v14.312h5.699v-14.311h4.46l0.708-5.688h-5.169v-3.919c0.001-1.644 0.444-2.769 2.735-2.769z"></path>
</symbol>
<symbol id="icon-group-1" viewBox="0 0 32 32">
<path fill="#afb1b8" style="fill: var(--color4, #afb1b8)" d="M5.44 0l4.677 4.428h13.046v12.351l4.677 4.428v-21.206h-22.4z"></path>
<path fill="#afb1b8" style="fill: var(--color4, #afb1b8)" d="M1.6 4.241v20.6h21.76v-8.188l-13.105-12.406-8.655-0.005zM19.215 21.828h-14.172v-13.854h1.002v12.916h13.17v0.938z"></path>
<path fill="#afb1b8" style="fill: var(--color4, #afb1b8)" d="M7.866 28.662l0.523-1.078h0.438l-0.762 1.438v0.837h-0.397v-0.837l-0.764-1.438h0.439l0.523 1.078zM10.113 29.329h-0.881l-0.184 0.53h-0.411l0.859-2.275h0.355l0.861 2.275h-0.412l-0.186-0.53zM9.343 29.010h0.659l-0.33-0.944-0.33 0.944zM11.671 29.244c0-0.105 0.029-0.202 0.086-0.289 0.057-0.089 0.17-0.193 0.339-0.314-0.088-0.111-0.151-0.206-0.186-0.284s-0.052-0.154-0.052-0.227c0-0.178 0.054-0.319 0.162-0.422s0.254-0.156 0.438-0.156c0.166 0 0.301 0.049 0.406 0.147 0.106 0.097 0.159 0.217 0.159 0.361 0 0.095-0.024 0.182-0.072 0.262-0.048 0.079-0.127 0.158-0.236 0.238l-0.155 0.113 0.439 0.519c0.064-0.125 0.095-0.264 0.095-0.417h0.33c0 0.28-0.066 0.51-0.197 0.689l0.334 0.395h-0.441l-0.128-0.152c-0.162 0.122-0.356 0.183-0.581 0.183s-0.405-0.059-0.541-0.178c-0.134-0.12-0.202-0.276-0.202-0.467zM12.424 29.587c0.128 0 0.248-0.043 0.359-0.128l-0.497-0.586-0.048 0.034c-0.125 0.095-0.188 0.203-0.188 0.325 0 0.105 0.034 0.191 0.102 0.256s0.158 0.098 0.272 0.098zM12.214 28.121c0 0.087 0.054 0.197 0.161 0.33l0.173-0.119 0.048-0.039c0.065-0.057 0.097-0.131 0.097-0.22 0-0.059-0.022-0.11-0.067-0.152-0.045-0.043-0.102-0.064-0.17-0.064-0.074 0-0.133 0.025-0.177 0.075s-0.066 0.113-0.066 0.189zM16.347 29.118c-0.023 0.243-0.113 0.432-0.269 0.569-0.156 0.135-0.364 0.203-0.623 0.203-0.181 0-0.341-0.043-0.48-0.128-0.137-0.086-0.244-0.209-0.319-0.367s-0.114-0.342-0.117-0.552v-0.212c0-0.215 0.038-0.404 0.114-0.567s0.185-0.29 0.327-0.378c0.143-0.088 0.307-0.133 0.494-0.133 0.251 0 0.453 0.068 0.606 0.205s0.242 0.329 0.267 0.578h-0.394c-0.019-0.164-0.067-0.281-0.144-0.353-0.076-0.073-0.188-0.109-0.336-0.109-0.172 0-0.304 0.063-0.397 0.189-0.092 0.125-0.139 0.309-0.141 0.552v0.202c0 0.246 0.044 0.433 0.131 0.563s0.218 0.194 0.387 0.194c0.155 0 0.272-0.035 0.35-0.105s0.128-0.186 0.148-0.348h0.394zM18.517 28.78c0 0.223-0.039 0.419-0.116 0.588-0.077 0.168-0.187 0.297-0.331 0.388-0.143 0.090-0.307 0.134-0.494 0.134-0.184 0-0.349-0.045-0.494-0.134-0.144-0.091-0.255-0.219-0.334-0.386-0.078-0.167-0.118-0.359-0.119-0.576v-0.128c0-0.222 0.039-0.418 0.117-0.588 0.079-0.17 0.19-0.299 0.333-0.389 0.144-0.091 0.308-0.136 0.494-0.136s0.349 0.045 0.492 0.134c0.144 0.088 0.255 0.217 0.333 0.384s0.118 0.361 0.119 0.583v0.127zM18.122 28.662c0-0.252-0.048-0.445-0.144-0.58-0.095-0.134-0.23-0.202-0.405-0.202-0.171 0-0.305 0.067-0.402 0.202-0.096 0.133-0.145 0.322-0.147 0.567v0.131c0 0.25 0.048 0.443 0.145 0.58 0.098 0.136 0.233 0.205 0.406 0.205 0.175 0 0.309-0.067 0.403-0.2 0.095-0.133 0.142-0.328 0.142-0.584v-0.119z"></path>
</symbol>
<symbol id="icon-group-2" viewBox="0 0 32 32">
<path fill="#afb1b8" style="fill: var(--color4, #afb1b8)" d="M14.14 1.806h0.084c0.156 0 0.324 0.016 0.49 0.030 0.734 0.052 1.463 0.162 2.179 0.329v-1.762c-0.738-0.185-1.491-0.305-2.25-0.358-0.288-0.022-0.595-0.036-0.909-0.044h-0.263c-1.523 0.006-3.039 0.201-4.515 0.582-1.68 0.419-3.293 1.075-4.79 1.948v17.475c1.442-0.783 2.976-1.381 4.566-1.779 1.256-0.32 2.539-0.517 3.833-0.588h0.051c0.216-0.011 0.433-0.017 0.655-0.019v-1.79c-1.681 0.022-3.353 0.244-4.982 0.662-0.602 0.157-1.185 0.325-1.731 0.513l-0.623 0.211v-13.625l0.266-0.128c2.032-0.963 4.229-1.524 6.471-1.651 0.019-0.001 0.037-0.001 0.056 0 0.248-0.013 0.497-0.019 0.741-0.019h0.28c0.129 0.003 0.258 0.006 0.388 0.014z"></path>
<path fill="#afb1b8" style="fill: var(--color4, #afb1b8)" d="M18.53 3.651c-0.409 0-0.814-0.014-1.205-0.044-0.467-0.034-0.946-0.091-1.401-0.167-0.277-0.047-0.55-0.103-0.814-0.164v17.275c1.12 0.277 2.271 0.413 3.425 0.404 1.523-0.006 3.039-0.201 4.515-0.581 1.68-0.42 3.294-1.075 4.792-1.948v-17.163c-1.441 0.783-2.975 1.381-4.564 1.781-1.551 0.398-3.145 0.603-4.747 0.609zM25.437 3.95l0.623-0.21v13.63l-0.266 0.128c-1.021 0.486-2.087 0.869-3.184 1.144-1.331 0.344-2.7 0.522-4.074 0.527-0.411 0-0.819-0.017-1.214-0.052l-0.427-0.038v-14.017l0.497 0.033c0.361 0.023 0.735 0.034 1.141 0.034 1.745-0.006 3.482-0.229 5.173-0.663 0.581-0.153 1.158-0.325 1.731-0.518z"></path>
<path fill="#afb1b8" style="fill: var(--color4, #afb1b8)" d="M5.377 25.977c-0.090-0.093-0.197-0.166-0.317-0.214s-0.247-0.071-0.376-0.066c-0.137-0.002-0.273 0.024-0.4 0.075-0.117 0.046-0.222 0.116-0.311 0.205s-0.156 0.196-0.201 0.313c-0.049 0.123-0.073 0.254-0.072 0.387v2.335c-0.006 0.165 0.026 0.328 0.092 0.479 0.055 0.12 0.135 0.226 0.234 0.313 0.093 0.079 0.203 0.135 0.321 0.166 0.114 0.032 0.231 0.048 0.349 0.049 0.13 0.001 0.259-0.027 0.377-0.081 0.117-0.051 0.222-0.124 0.311-0.216 0.087-0.091 0.156-0.197 0.204-0.313 0.050-0.118 0.075-0.244 0.075-0.372v-0.261h-0.61v0.208c0.002 0.071-0.010 0.142-0.036 0.208-0.020 0.050-0.050 0.095-0.089 0.131-0.038 0.031-0.081 0.053-0.128 0.067-0.041 0.014-0.084 0.021-0.128 0.022-0.054 0.006-0.11-0.002-0.16-0.024s-0.094-0.057-0.126-0.101c-0.058-0.094-0.086-0.203-0.081-0.313v-2.177c-0.004-0.121 0.022-0.241 0.075-0.349 0.032-0.049 0.077-0.089 0.129-0.114s0.112-0.034 0.17-0.027c0.053-0.002 0.105 0.009 0.152 0.032s0.089 0.057 0.12 0.099c0.068 0.090 0.104 0.2 0.101 0.313v0.202h0.604v-0.238c0.001-0.14-0.024-0.278-0.075-0.408-0.045-0.122-0.114-0.234-0.204-0.329z"></path>
<path fill="#afb1b8" style="fill: var(--color4, #afb1b8)" d="M9.002 25.95c-0.195-0.164-0.44-0.255-0.694-0.257-0.124 0-0.248 0.023-0.364 0.066-0.119 0.042-0.228 0.107-0.322 0.191-0.101 0.091-0.182 0.202-0.237 0.327-0.061 0.143-0.092 0.297-0.089 0.452v2.239c-0.004 0.158 0.026 0.314 0.089 0.459 0.055 0.12 0.136 0.227 0.237 0.313 0.093 0.087 0.203 0.154 0.322 0.197 0.117 0.043 0.24 0.065 0.364 0.066s0.248-0.023 0.364-0.066c0.121-0.044 0.233-0.111 0.33-0.197 0.097-0.087 0.176-0.194 0.23-0.313 0.063-0.145 0.093-0.301 0.089-0.459v-2.239c0.003-0.155-0.027-0.31-0.089-0.452-0.054-0.123-0.133-0.235-0.23-0.327zM8.717 28.969c0.005 0.060-0.003 0.12-0.024 0.176s-0.054 0.107-0.097 0.148c-0.081 0.068-0.182 0.105-0.287 0.105s-0.207-0.037-0.287-0.105c-0.043-0.041-0.076-0.092-0.097-0.148s-0.029-0.116-0.024-0.176v-2.239c-0.005-0.060 0.003-0.12 0.024-0.176s0.054-0.107 0.097-0.148c0.081-0.068 0.182-0.105 0.287-0.105s0.207 0.037 0.287 0.105c0.043 0.041 0.076 0.092 0.097 0.148s0.029 0.116 0.024 0.176v2.239z"></path>
<path fill="#afb1b8" style="fill: var(--color4, #afb1b8)" d="M13.764 29.969v-4.239h-0.587l-0.771 2.244h-0.011l-0.777-2.244h-0.581v4.239h0.606v-2.579h0.011l0.593 1.823h0.302l0.598-1.823h0.011v2.579h0.606z"></path>
<path fill="#afb1b8" style="fill: var(--color4, #afb1b8)" d="M17.205 26.027c-0.093-0.105-0.211-0.184-0.343-0.232-0.142-0.046-0.29-0.068-0.439-0.066h-0.9v4.239h0.604v-1.656h0.311c0.189 0.009 0.376-0.031 0.545-0.116 0.137-0.076 0.252-0.188 0.332-0.324 0.070-0.113 0.117-0.238 0.139-0.369 0.024-0.16 0.035-0.321 0.033-0.482 0.006-0.204-0.014-0.407-0.059-0.606-0.040-0.147-0.117-0.281-0.223-0.39zM16.894 27.319c-0.003 0.077-0.022 0.152-0.056 0.221-0.035 0.065-0.089 0.117-0.156 0.149-0.089 0.040-0.187 0.058-0.285 0.053h-0.276v-1.441h0.311c0.094-0.005 0.187 0.014 0.272 0.053 0.062 0.036 0.112 0.091 0.142 0.157 0.033 0.074 0.051 0.155 0.053 0.236 0 0.089 0 0.183 0 0.282s0.006 0.2 0 0.291h-0.006z"></path>
<path fill="#afb1b8" style="fill: var(--color4, #afb1b8)" d="M20.066 25.73h-0.495l-0.934 4.239h0.604l0.177-0.911h0.823l0.177 0.911h0.604l-0.957-4.239zM19.509 28.481l0.297-1.537h0.011l0.296 1.537h-0.604z"></path>
<path fill="#afb1b8" style="fill: var(--color4, #afb1b8)" d="M23.969 28.284h-0.011l-0.912-2.554h-0.581v4.239h0.604v-2.549h0.012l0.923 2.549h0.568v-4.239h-0.604v2.554z"></path>
<path fill="#afb1b8" style="fill: var(--color4, #afb1b8)" d="M27.66 25.73l-0.486 1.685h-0.012l-0.486-1.685h-0.64l0.83 2.447v1.792h0.604v-1.792l0.83-2.447h-0.64z"></path>
<path fill="#afb1b8" style="fill: var(--color4, #afb1b8)" d="M3.692 31.166h0.291v0.817h0.198v-0.817h0.29v-0.167h-0.778v0.167z"></path>
<path fill="#afb1b8" style="fill: var(--color4, #afb1b8)" d="M6.14 30.998l-0.381 0.984h0.21l0.081-0.224h0.392l0.084 0.224h0.215l-0.391-0.984h-0.21zM6.109 31.593l0.134-0.365 0.134 0.365h-0.268z"></path>
<path fill="#afb1b8" style="fill: var(--color4, #afb1b8)" d="M8.559 31.62h0.227v0.127c-0.066 0.053-0.149 0.082-0.233 0.083-0.040 0.002-0.079-0.005-0.116-0.021s-0.068-0.041-0.093-0.072c-0.052-0.075-0.078-0.165-0.073-0.257 0-0.219 0.095-0.329 0.283-0.329 0.050-0.005 0.099 0.008 0.14 0.037s0.070 0.071 0.082 0.12l0.195-0.038c-0.042-0.192-0.181-0.289-0.417-0.289-0.127-0.003-0.25 0.042-0.344 0.127-0.050 0.049-0.088 0.108-0.112 0.174s-0.034 0.135-0.029 0.205c-0.006 0.135 0.039 0.267 0.126 0.369 0.048 0.050 0.107 0.088 0.171 0.113s0.134 0.035 0.203 0.031c0.154 0.004 0.304-0.052 0.417-0.157v-0.388h-0.427v0.166z"></path>
<path fill="#afb1b8" style="fill: var(--color4, #afb1b8)" d="M11.029 30.998h-0.199v0.984h0.69v-0.167h-0.49v-0.817z"></path>
<path fill="#afb1b8" style="fill: var(--color4, #afb1b8)" d="M13.119 30.998h-0.199v0.984h0.199v-0.984z"></path>
<path fill="#afb1b8" style="fill: var(--color4, #afb1b8)" d="M15.161 31.656l-0.403-0.657h-0.193v0.984h0.185v-0.643l0.395 0.643h0.198v-0.984h-0.182v0.657z"></path>
<path fill="#afb1b8" style="fill: var(--color4, #afb1b8)" d="M17.007 31.549h0.49v-0.167h-0.49v-0.216h0.528v-0.167h-0.727v0.984h0.747v-0.167h-0.548v-0.266z"></path>
<path fill="#afb1b8" style="fill: var(--color4, #afb1b8)" d="M21.484 31.387h-0.388v-0.388h-0.198v0.984h0.198v-0.43h0.388v0.43h0.198v-0.984h-0.198v0.388z"></path>
<path fill="#afb1b8" style="fill: var(--color4, #afb1b8)" d="M23.342 31.549h0.492v-0.167h-0.492v-0.216h0.529v-0.167h-0.727v0.984h0.746v-0.167h-0.548v-0.266z"></path>
<path fill="#afb1b8" style="fill: var(--color4, #afb1b8)" d="M25.861 31.549c0.171-0.027 0.258-0.117 0.258-0.274 0.005-0.042-0.001-0.084-0.018-0.123s-0.044-0.072-0.078-0.096c-0.089-0.045-0.189-0.065-0.288-0.058h-0.417v0.984h0.198v-0.412h0.039c0.042-0.003 0.084 0.005 0.123 0.022 0.029 0.018 0.053 0.043 0.070 0.072l0.215 0.313h0.237l-0.12-0.192c-0.053-0.095-0.128-0.176-0.218-0.236zM25.661 31.413h-0.146v-0.247h0.156c0.068-0.005 0.136 0.002 0.201 0.023 0.014 0.013 0.026 0.029 0.033 0.046s0.011 0.037 0.010 0.056c-0.001 0.019-0.006 0.038-0.015 0.055s-0.022 0.032-0.037 0.043c-0.065 0.020-0.133 0.028-0.201 0.023z"></path>
<path fill="#afb1b8" style="fill: var(--color4, #afb1b8)" d="M27.759 31.549h0.49v-0.167h-0.49v-0.216h0.529v-0.167h-0.729v0.984h0.747v-0.167h-0.548v-0.266z"></path>
</symbol>
<symbol id="icon-group-3" viewBox="0 0 32 32">
<path fill="#2196f3" style="fill: var(--color1, #2196f3)" d="M4.961 12.532h-0.001c-0.905 0-1.639 0.715-1.639 1.597v0.001c0 0.882 0.734 1.597 1.639 1.597h0.001c0.905 0 1.639-0.715 1.639-1.597v-0.001c0-0.882-0.734-1.597-1.639-1.597z"></path>
<path fill="#2196f3" style="fill: var(--color1, #2196f3)" d="M17.055 12.022c-0.003-1.225-0.503-2.399-1.392-3.265s-2.093-1.354-3.35-1.357v0c-1.257 0.002-2.462 0.49-3.351 1.356s-1.39 2.041-1.392 3.266v6.754c0 0 9.484-1.029 9.485-6.753v-0.001z"></path>
<path fill="#2196f3" style="fill: var(--color1, #2196f3)" d="M0 20.993c0.002 0.852 0.351 1.669 0.969 2.272s1.456 0.942 2.331 0.945c0.874-0.002 1.712-0.342 2.33-0.945s0.967-1.419 0.969-2.271v-4.7c0 0-6.599 0.717-6.599 4.699zM3.3 21.835c-0.171 0-0.338-0.049-0.48-0.142s-0.253-0.224-0.318-0.378-0.083-0.323-0.049-0.487c0.033-0.163 0.116-0.313 0.236-0.431s0.275-0.198 0.442-0.23c0.168-0.032 0.341-0.016 0.499 0.048s0.293 0.172 0.388 0.31c0.095 0.138 0.146 0.301 0.146 0.468 0 0.111-0.022 0.221-0.065 0.323s-0.107 0.196-0.187 0.274c-0.080 0.079-0.176 0.141-0.281 0.183s-0.218 0.064-0.331 0.064v-0.003z"></path>
<path fill="#2196f3" style="fill: var(--color1, #2196f3)" d="M10.036 21.312h-0.675v0.697h-0.352v-1.706h1.111v0.285h-0.759v0.441h0.675v0.284zM11.725 21.195c0 0.168-0.030 0.315-0.089 0.442s-0.145 0.224-0.255 0.293c-0.11 0.069-0.237 0.103-0.38 0.103-0.141 0-0.268-0.034-0.379-0.102s-0.197-0.165-0.258-0.291c-0.061-0.127-0.092-0.272-0.093-0.436v-0.084c0-0.168 0.030-0.316 0.090-0.443s0.147-0.226 0.257-0.294c0.111-0.069 0.237-0.103 0.38-0.103s0.268 0.034 0.379 0.103c0.111 0.068 0.196 0.166 0.257 0.294s0.091 0.275 0.091 0.442v0.076zM11.369 21.118c0-0.179-0.032-0.315-0.096-0.408s-0.155-0.139-0.274-0.139c-0.118 0-0.209 0.046-0.273 0.138s-0.097 0.226-0.097 0.403v0.083c0 0.174 0.032 0.309 0.096 0.405s0.156 0.144 0.277 0.144c0.118 0 0.209-0.046 0.272-0.138s0.095-0.228 0.096-0.405v-0.083zM12.866 21.562c0-0.066-0.023-0.117-0.070-0.152s-0.131-0.073-0.253-0.112c-0.122-0.040-0.218-0.079-0.289-0.117-0.194-0.105-0.291-0.246-0.291-0.423 0-0.092 0.026-0.174 0.077-0.246s0.127-0.129 0.224-0.17c0.098-0.041 0.207-0.061 0.328-0.061s0.23 0.022 0.326 0.067c0.095 0.044 0.169 0.106 0.221 0.186s0.080 0.172 0.080 0.274h-0.352c0-0.078-0.025-0.139-0.074-0.182s-0.118-0.066-0.207-0.066c-0.086 0-0.153 0.018-0.2 0.055s-0.071 0.084-0.071 0.143c0 0.055 0.028 0.102 0.083 0.139s0.139 0.073 0.247 0.105c0.2 0.060 0.346 0.135 0.437 0.224s0.137 0.2 0.137 0.333c0 0.148-0.056 0.264-0.168 0.348s-0.262 0.125-0.451 0.125c-0.131 0-0.251-0.024-0.359-0.071s-0.19-0.114-0.247-0.198c-0.056-0.084-0.084-0.18-0.084-0.291h0.353c0 0.188 0.112 0.282 0.337 0.282 0.084 0 0.149-0.017 0.196-0.050s0.070-0.082 0.070-0.143zM14.742 20.588h-0.523v1.421h-0.352v-1.421h-0.516v-0.285h1.39v0.285zM15.97 21.27h-0.675v0.457h0.792v0.282h-1.144v-1.706h1.141v0.285h-0.79v0.407h0.675v0.275zM16.925 21.385h-0.28v0.625h-0.352v-1.706h0.634c0.202 0 0.357 0.045 0.466 0.135s0.164 0.217 0.164 0.381c0 0.116-0.025 0.214-0.076 0.292s-0.126 0.139-0.229 0.185l0.369 0.697v0.016h-0.377l-0.32-0.625zM16.645 21.1h0.284c0.088 0 0.157-0.022 0.205-0.067s0.073-0.107 0.073-0.186c0-0.080-0.023-0.144-0.069-0.19s-0.115-0.069-0.21-0.069h-0.282v0.512zM18.775 21.409v0.601h-0.352v-1.706h0.666c0.128 0 0.241 0.023 0.338 0.070s0.173 0.114 0.225 0.2c0.052 0.086 0.079 0.184 0.079 0.294 0 0.167-0.057 0.299-0.172 0.396s-0.272 0.144-0.475 0.144h-0.308zM18.775 21.124h0.314c0.093 0 0.164-0.022 0.212-0.066s0.074-0.106 0.074-0.187c0-0.084-0.025-0.151-0.074-0.203s-0.117-0.078-0.204-0.080h-0.322v0.536zM21 21.27h-0.675v0.457h0.792v0.282h-1.144v-1.706h1.141v0.285h-0.79v0.407h0.675v0.275zM22.631 20.588h-0.523v1.421h-0.352v-1.421h-0.516v-0.285h1.39v0.285zM23.859 21.27h-0.675v0.457h0.792v0.282h-1.144v-1.706h1.141v0.285h-0.79v0.407h0.675v0.275zM24.814 21.385h-0.28v0.625h-0.352v-1.706h0.634c0.202 0 0.357 0.045 0.466 0.135s0.164 0.217 0.164 0.381c0 0.116-0.025 0.214-0.076 0.292s-0.126 0.139-0.229 0.185l0.369 0.697v0.016h-0.377l-0.32-0.625zM24.534 21.1h0.284c0.088 0 0.157-0.022 0.205-0.067s0.073-0.107 0.073-0.186c0-0.080-0.023-0.144-0.069-0.19s-0.115-0.069-0.21-0.069h-0.282v0.512zM26.6 21.562c0-0.066-0.023-0.117-0.070-0.152s-0.131-0.073-0.253-0.112c-0.122-0.040-0.218-0.079-0.289-0.117-0.194-0.105-0.291-0.246-0.291-0.423 0-0.092 0.026-0.174 0.077-0.246s0.127-0.129 0.224-0.17c0.098-0.041 0.207-0.061 0.328-0.061s0.23 0.022 0.326 0.067c0.095 0.044 0.169 0.106 0.221 0.186s0.080 0.172 0.080 0.274h-0.352c0-0.078-0.025-0.139-0.074-0.182s-0.118-0.066-0.207-0.066c-0.086 0-0.153 0.018-0.2 0.055s-0.071 0.084-0.071 0.143c0 0.055 0.028 0.102 0.083 0.139s0.139 0.073 0.247 0.105c0.2 0.060 0.346 0.135 0.437 0.224s0.137 0.2 0.137 0.333c0 0.148-0.056 0.264-0.168 0.348s-0.262 0.125-0.451 0.125c-0.131 0-0.251-0.024-0.359-0.071s-0.19-0.114-0.247-0.198c-0.056-0.084-0.084-0.18-0.084-0.291h0.353c0 0.188 0.113 0.282 0.338 0.282 0.084 0 0.149-0.017 0.196-0.050s0.070-0.082 0.070-0.143z"></path>
</symbol>
<symbol id="icon-group-4" viewBox="0 0 32 32">
<path fill="#afb1b8" style="fill: var(--color4, #afb1b8)" d="M2.434 24.557c0.125 0.155 0.191 0.349 0.188 0.548 0.006 0.13-0.016 0.26-0.067 0.379s-0.127 0.227-0.224 0.313c-0.242 0.184-0.542 0.273-0.845 0.253h-1.486v-3.474h1.455c0.287-0.019 0.572 0.062 0.806 0.231 0.094 0.079 0.168 0.179 0.217 0.292s0.071 0.235 0.065 0.358c0.009 0.192-0.051 0.38-0.169 0.531-0.113 0.138-0.269 0.234-0.443 0.271 0.197 0.036 0.375 0.141 0.502 0.297zM0.691 24.033h0.622c0.141 0.011 0.282-0.030 0.396-0.115 0.047-0.043 0.083-0.095 0.106-0.154s0.032-0.122 0.027-0.185c0.004-0.063-0.005-0.126-0.028-0.185s-0.058-0.112-0.104-0.155c-0.117-0.087-0.262-0.129-0.407-0.117h-0.612v0.911zM1.77 25.365c0.050-0.044 0.089-0.098 0.115-0.159s0.037-0.128 0.032-0.194c0.004-0.067-0.008-0.134-0.034-0.196s-0.066-0.117-0.117-0.161c-0.122-0.091-0.271-0.135-0.423-0.126h-0.652v0.955h0.661c0.149 0.009 0.296-0.034 0.417-0.12z"></path>
<path fill="#afb1b8" style="fill: var(--color4, #afb1b8)" d="M5.409 26.051l-0.81-1.358h-0.304v1.358h-0.696v-3.474h1.318c0.332-0.023 0.661 0.082 0.918 0.295 0.184 0.189 0.295 0.437 0.313 0.701s-0.058 0.525-0.215 0.737c-0.163 0.187-0.385 0.312-0.629 0.353l0.862 1.388h-0.757zM4.295 24.22h0.57c0.396 0 0.593-0.175 0.593-0.526 0.004-0.072-0.007-0.143-0.032-0.21s-0.064-0.128-0.114-0.18c-0.125-0.104-0.286-0.155-0.448-0.141h-0.576l0.007 1.057z"></path>
<path fill="#afb1b8" style="fill: var(--color4, #afb1b8)" d="M9.215 25.352h-1.388l-0.245 0.699h-0.73l1.274-3.435h0.789l1.269 3.435h-0.73l-0.24-0.699zM9.029 24.826l-0.507-1.466-0.507 1.466h1.014z"></path>
<path fill="#afb1b8" style="fill: var(--color4, #afb1b8)" d="M13.98 26.051h-0.691l-1.55-2.362v2.362h-0.69v-3.474h0.69l1.55 2.376v-2.376h0.691v3.474z"></path>
<path fill="#afb1b8" style="fill: var(--color4, #afb1b8)" d="M17.925 25.219c-0.143 0.262-0.361 0.476-0.625 0.613-0.301 0.153-0.635 0.228-0.972 0.219h-1.231v-3.474h1.231c0.336-0.009 0.67 0.065 0.972 0.214 0.265 0.134 0.483 0.345 0.625 0.606 0.142 0.283 0.216 0.595 0.216 0.911s-0.074 0.629-0.216 0.911zM17.134 25.136c0.197-0.231 0.306-0.525 0.306-0.829s-0.108-0.598-0.306-0.829c-0.238-0.209-0.549-0.315-0.865-0.295h-0.48v2.249h0.48c0.316 0.020 0.627-0.086 0.865-0.295z"></path>
<path fill="#afb1b8" style="fill: var(--color4, #afb1b8)" d="M9.648 3.254c0 0 8.923 3.382 8.734 8.277v8.278c0 0-8.916-3.384-8.73-8.278l-0.003-8.277z"></path>
<path fill="#afb1b8" style="fill: var(--color4, #afb1b8)" d="M26.331 17.871c1.685-1.164 3.634-1.886 5.669-2.098v-2.591c-2.345 0.907-4.333 2.552-5.669 4.689z"></path>
<path fill="#afb1b8" style="fill: var(--color4, #afb1b8)" d="M25.318 18.652c1.379-2.788 3.77-4.94 6.682-6.013v-7.467c0 0-12.707 4.818-12.439 11.788v11.786c0 0 0.566-0.215 1.457-0.619 0-0.377 0-0.757 0.041-1.139 0.263-3.236 1.795-6.234 4.259-8.336z"></path>
<path fill="#afb1b8" style="fill: var(--color4, #afb1b8)" d="M24.11 23.030c0.067-0.817 0.216-1.626 0.445-2.413-1.534 1.815-2.464 4.067-2.657 6.44-0.019 0.224-0.029 0.448-0.034 0.679 0.722-0.348 1.562-0.782 2.444-1.293-0.225-1.123-0.292-2.271-0.198-3.413z"></path>
<path fill="#afb1b8" style="fill: var(--color4, #afb1b8)" d="M24.615 23.073c-0.085 1.032-0.032 2.072 0.157 3.090 3.472-2.086 7.373-5.308 7.222-9.203v-0.339c-2.48 0.279-4.801 1.367-6.605 3.099-0.422 1.073-0.683 2.203-0.774 3.353z"></path>
</symbol>
<symbol id="icon-group-5" viewBox="0 0 32 32">
<path fill="#afb1b8" style="fill: var(--color4, #afb1b8)" d="M16.086 15.408c-0.15-0.219-0.222-0.479-0.205-0.74v-1.072c0-0.329 0.068-0.579 0.204-0.749s0.369-0.256 0.701-0.255c0.311 0 0.532 0.073 0.663 0.218 0.142 0.186 0.212 0.413 0.196 0.641v0.252h-0.557v-0.255c0.002-0.084-0.003-0.167-0.016-0.25-0.008-0.057-0.036-0.109-0.080-0.148-0.057-0.043-0.129-0.063-0.202-0.058-0.076-0.005-0.152 0.016-0.212 0.061-0.048 0.044-0.081 0.101-0.092 0.164-0.016 0.088-0.023 0.176-0.022 0.265v1.301c-0.009 0.126 0.016 0.251 0.071 0.365 0.028 0.039 0.066 0.069 0.111 0.089s0.095 0.026 0.144 0.021c0.071 0.006 0.142-0.016 0.197-0.059 0.045-0.043 0.075-0.098 0.083-0.158 0.013-0.086 0.019-0.174 0.017-0.261v-0.264h0.557v0.241c0.016 0.239-0.052 0.476-0.192 0.674-0.128 0.159-0.346 0.239-0.666 0.239s-0.562-0.085-0.699-0.262z"></path>
<path fill="#afb1b8" style="fill: var(--color4, #afb1b8)" d="M18.404 15.419c-0.141-0.167-0.211-0.41-0.211-0.732v-1.128c0-0.319 0.070-0.56 0.211-0.723s0.376-0.245 0.705-0.244c0.327 0 0.561 0.081 0.702 0.244s0.212 0.405 0.212 0.723v1.128c0 0.319-0.071 0.563-0.214 0.731s-0.376 0.252-0.699 0.252-0.564-0.085-0.705-0.251zM19.369 15.148c0.050-0.105 0.073-0.219 0.067-0.334v-1.381c0.006-0.113-0.016-0.225-0.066-0.327-0.028-0.039-0.068-0.071-0.114-0.090s-0.097-0.026-0.147-0.019c-0.050-0.007-0.101 0-0.147 0.019s-0.086 0.050-0.114 0.090c-0.051 0.102-0.074 0.215-0.067 0.327v1.388c-0.007 0.115 0.016 0.229 0.067 0.334 0.032 0.035 0.073 0.063 0.117 0.083s0.094 0.029 0.143 0.029 0.098-0.010 0.143-0.029c0.045-0.019 0.085-0.048 0.117-0.083v-0.007z"></path>
<path fill="#afb1b8" style="fill: var(--color4, #afb1b8)" d="M20.692 12.624h0.599l0.451 2.081 0.461-2.081h0.583l0.059 3.004h-0.431l-0.046-2.088-0.445 2.088h-0.346l-0.461-2.095-0.043 2.095h-0.436l0.054-3.004z"></path>
<path fill="#afb1b8" style="fill: var(--color4, #afb1b8)" d="M23.517 12.624h0.933c0.538 0 0.807 0.284 0.807 0.853 0 0.545-0.283 0.817-0.849 0.816h-0.318v1.335h-0.576l0.003-3.004zM24.314 13.908c0.057 0.007 0.115 0.002 0.169-0.014s0.105-0.044 0.147-0.080c0.066-0.101 0.095-0.221 0.083-0.339 0.003-0.092-0.006-0.183-0.028-0.273-0.008-0.030-0.023-0.058-0.042-0.082s-0.045-0.045-0.073-0.060c-0.080-0.036-0.168-0.053-0.257-0.048h-0.224v0.898h0.224z"></path>
<path fill="#afb1b8" style="fill: var(--color4, #afb1b8)" d="M26.087 12.624h0.619l0.635 3.004h-0.537l-0.126-0.693h-0.552l-0.129 0.693h-0.545l0.635-3.004zM26.616 14.588l-0.215-1.261-0.215 1.261h0.431z"></path>
<path fill="#afb1b8" style="fill: var(--color4, #afb1b8)" d="M27.854 12.624h0.403l0.772 1.714v-1.714h0.478v3.004h-0.384l-0.777-1.789v1.789h-0.494l0.001-3.004z"></path>
<path fill="#afb1b8" style="fill: var(--color4, #afb1b8)" d="M30.628 14.483l-0.642-1.854h0.54l0.392 1.191 0.368-1.191h0.529l-0.634 1.854v1.145h-0.553v-1.145z"></path>
<path fill="#afb1b8" style="fill: var(--color4, #afb1b8)" d="M16.976 16.942v0.157h-0.47v1.221h-0.197v-1.221h-0.472v-0.157h1.14z"></path>
<path fill="#afb1b8" style="fill: var(--color4, #afb1b8)" d="M18.45 18.32h-0.152c-0.015 0.001-0.031-0.004-0.043-0.013-0.012-0.008-0.020-0.019-0.025-0.032l-0.136-0.327h-0.652l-0.136 0.327c-0.004 0.014-0.011 0.026-0.021 0.037-0.012 0.009-0.027 0.014-0.043 0.013h-0.152l0.576-1.378h0.201l0.583 1.372zM17.496 17.808h0.544l-0.23-0.561c-0.017-0.042-0.031-0.086-0.043-0.13-0.008 0.026-0.015 0.051-0.022 0.073l-0.021 0.058-0.228 0.56z"></path>
<path fill="#afb1b8" style="fill: var(--color4, #afb1b8)" d="M19.443 18.184c0.036 0.002 0.072 0.002 0.108 0 0.031-0.003 0.062-0.009 0.092-0.016 0.028-0.007 0.056-0.015 0.083-0.025 0.025-0.010 0.051-0.022 0.077-0.034v-0.31h-0.23c-0.006 0-0.011-0-0.017-0.002s-0.010-0.005-0.014-0.009c-0.004-0.003-0.007-0.007-0.009-0.011s-0.003-0.009-0.003-0.014v-0.106h0.447v0.528c-0.037 0.025-0.075 0.047-0.115 0.065s-0.084 0.035-0.128 0.047c-0.047 0.013-0.095 0.023-0.144 0.028-0.056 0.006-0.112 0.009-0.168 0.009-0.099 0.001-0.198-0.017-0.29-0.051-0.086-0.033-0.165-0.082-0.23-0.144-0.064-0.063-0.115-0.137-0.149-0.218-0.036-0.091-0.054-0.188-0.053-0.286-0.001-0.098 0.016-0.196 0.052-0.288 0.033-0.082 0.084-0.156 0.149-0.218s0.144-0.111 0.23-0.143c0.099-0.035 0.203-0.053 0.309-0.051 0.054-0 0.107 0.004 0.16 0.012 0.047 0.007 0.093 0.019 0.137 0.035 0.040 0.014 0.079 0.033 0.115 0.055 0.035 0.022 0.069 0.046 0.1 0.072l-0.055 0.085c-0.004 0.008-0.011 0.014-0.019 0.019s-0.017 0.007-0.026 0.007c-0.013-0-0.025-0.004-0.036-0.011-0.017-0.009-0.036-0.020-0.056-0.033-0.024-0.015-0.050-0.027-0.077-0.037-0.034-0.013-0.070-0.023-0.106-0.031-0.048-0.008-0.097-0.012-0.146-0.012-0.076-0.001-0.151 0.012-0.222 0.038-0.064 0.024-0.122 0.062-0.169 0.109-0.048 0.050-0.084 0.108-0.107 0.171-0.052 0.149-0.052 0.31 0 0.459 0.025 0.065 0.064 0.124 0.115 0.173 0.047 0.047 0.105 0.084 0.168 0.109 0.073 0.024 0.151 0.033 0.228 0.027z"></path>
<path fill="#afb1b8" style="fill: var(--color4, #afb1b8)" d="M21.28 18.162h0.629v0.157h-0.822v-1.378h0.197l-0.005 1.221z"></path>
<path fill="#afb1b8" style="fill: var(--color4, #afb1b8)" d="M22.564 18.319h-0.197v-1.378h0.197v1.378z"></path>
<path fill="#afb1b8" style="fill: var(--color4, #afb1b8)" d="M23.297 16.948c0.012 0.006 0.022 0.015 0.030 0.025l0.842 1.039c-0.001-0.016-0.001-0.033 0-0.049 0-0.015 0-0.031 0-0.045v-0.982h0.172v1.383h-0.099c-0.015 0.001-0.029-0.002-0.043-0.008-0.012-0.007-0.023-0.016-0.031-0.026l-0.841-1.037c0 0.016 0 0.032 0 0.047s0 0.029 0 0.043v0.982h-0.165v-1.378h0.103c0.011 0 0.022 0.002 0.032 0.007z"></path>
<path fill="#afb1b8" style="fill: var(--color4, #afb1b8)" d="M25.792 16.942v0.152h-0.698v0.455h0.566v0.146h-0.566v0.47h0.698v0.152h-0.901v-1.375h0.901z"></path>
<path fill="#afb1b8" style="fill: var(--color4, #afb1b8)" d="M5.143 8.433l8.75 2.352v8.242l-8.75-2.351v-8.243zM4.582 7.73v9.346l9.871 2.654v-9.345l-9.871-2.655z"></path>
<path fill="#afb1b8" style="fill: var(--color4, #afb1b8)" d="M9.872 24.068l-9.872-2.656v-9.345l9.872 2.655v9.346z"></path>
<path fill="#afb1b8" style="fill: var(--color4, #afb1b8)" d="M4.745 8.327l8.636 2.322-3.672 3.478-8.637-2.324 3.674-3.477zM4.582 7.73l-4.582 4.337 9.872 2.655 4.581-4.337-9.871-2.655z"></path>
<path fill="#afb1b8" style="fill: var(--color4, #afb1b8)" d="M10.427 23.543l4.025-3.811-4.025-1.083v4.895z"></path>
</symbol>
<symbol id="icon-principle_antend" viewBox="0 0 30 32">
<path fill="#212121" style="fill: var(--color2, #212121)" d="M29.859 22.098l-8.443-8.505 0.937-4.615c0.242 0.094 0.499 0.144 0.758 0.146h0.006c1.192 0.014 2.17-0.941 2.184-2.133s-0.941-2.17-2.133-2.184c-1.192-0.014-2.17 0.941-2.184 2.133-0.003 0.255 0.039 0.509 0.125 0.749l-4.96 0.605-8.091-8.133c-0.099-0.101-0.235-0.159-0.377-0.16-0.14 0.001-0.274 0.056-0.373 0.155l-1.513 1.504c-0.208 0.208-0.208 0.546 0 0.754l0.814 0.826c-3.153 5.798-2.129 12.978 2.519 17.663 0.043 0.041 0.092 0.074 0.146 0.098-0.034 0.18-0.051 0.364-0.052 0.547v6.187h-6.4c-1.472 0.002-2.665 1.195-2.667 2.667v1.067c0 0.295 0.239 0.533 0.533 0.533h24.533c0.295 0 0.533-0.239 0.533-0.533v-1.067c-0.002-1.472-1.195-2.665-2.667-2.667h-6.4v-2.742c1.003 0.21 2.024 0.317 3.049 0.32 2.458-0.003 4.877-0.615 7.040-1.783l0.818 0.823c0.099 0.101 0.235 0.159 0.377 0.16 0.14-0.001 0.274-0.056 0.373-0.155l1.513-1.504c0.208-0.208 0.208-0.546 0-0.754zM22.365 6.233c0.418-0.415 1.093-0.414 1.508 0.004s0.414 1.093-0.004 1.508c-0.2 0.199-0.47 0.31-0.752 0.31h-0.003c-0.589-0.003-1.064-0.483-1.061-1.072 0.001-0.282 0.114-0.552 0.314-0.751h-0.002zM21.11 9.738l-0.598 2.946-1.175-1.182 1.774-1.763zM20.504 8.836l-1.92 1.909-1.485-1.493 3.405-0.415zM23.090 28.8c0.884 0 1.6 0.716 1.6 1.6v0.533h-23.467v-0.533c0-0.884 0.716-1.6 1.6-1.6h20.267zM15.623 26.667v1.067h-5.333v-1.067h5.333zM10.29 25.6v-4.053c0-1.294 1.196-2.347 2.667-2.347s2.667 1.053 2.667 2.347v4.053h-5.333zM16.69 23.904v-2.357c0-1.882-1.675-3.413-3.733-3.413-1.331-0.020-2.576 0.657-3.281 1.786-4.058-4.274-4.971-10.645-2.279-15.887l18.602 18.708c-2.872 1.461-6.165 1.873-9.309 1.163zM27.979 23.22l-21.057-21.181 0.755-0.752 7.935 7.98c0.004 0 0.006 0.007 0.010 0.010l13.115 13.191-0.757 0.752z"></path>
<path fill="#2196f3" style="fill: var(--color1, #2196f3)" d="M12.961 20.267h-0.005c-0.884-0.001-1.601 0.714-1.602 1.598s0.714 1.601 1.598 1.602h0.005c0.884 0.001 1.601-0.714 1.602-1.598s-0.714-1.601-1.598-1.602zM13.335 22.245c-0.1 0.1-0.236 0.156-0.378 0.155-0.295-0.002-0.532-0.241-0.531-0.536 0.001-0.141 0.057-0.276 0.157-0.375s0.233-0.154 0.373-0.155c0.295 0.002 0.532 0.241 0.53 0.536-0.001 0.141-0.057 0.276-0.157 0.375h0.005z"></path>
</symbol>
<symbol id="icon-icon-check" viewBox="0 0 32 32">
<path fill="#2196f3" style="fill: var(--color1, #2196f3)" d="M4 1h24c2.209 0 4 1.791 4 4v22c0 2.209-1.791 4-4 4h-24c-2.209 0-4-1.791-4-4v-22c0-2.209 1.791-4 4-4z"></path>
<path fill="#fff" style="fill: var(--color5, #fff); stroke: var(--color5, #fff)" stroke="#fff" stroke-linejoin="miter" stroke-linecap="butt" stroke-miterlimit="4" stroke-width="0.4" d="M7.914 16.503l-0.138-0.131-2.067 1.958 7.282 6.947 15.298-14.594-2.053-1.959-13.245 12.623-5.077-4.844z"></path>
</symbol>
<symbol id="icon-instagram" viewBox="0 0 32 32">
<path fill="#afb1b8" style="fill: var(--color4, #afb1b8)" d="M31.969 9.408c-0.075-1.7-0.35-2.869-0.744-3.882-0.406-1.075-1.032-2.038-1.851-2.838-0.8-0.813-1.769-1.444-2.832-1.844-1.019-0.394-2.182-0.669-3.882-0.744-1.713-0.081-2.257-0.1-6.601-0.1s-4.888 0.019-6.595 0.094c-1.7 0.075-2.869 0.35-3.882 0.744-1.075 0.406-2.038 1.031-2.838 1.85-0.813 0.8-1.444 1.769-1.844 2.832-0.394 1.019-0.669 2.182-0.744 3.882-0.081 1.713-0.1 2.257-0.1 6.601s0.019 4.888 0.094 6.595c0.075 1.7 0.35 2.869 0.744 3.882 0.406 1.075 1.038 2.038 1.85 2.838 0.8 0.813 1.769 1.444 2.832 1.844 1.019 0.394 2.182 0.669 3.882 0.744 1.706 0.075 2.25 0.094 6.595 0.094s4.888-0.019 6.595-0.094c1.7-0.075 2.869-0.35 3.882-0.744 2.151-0.832 3.851-2.532 4.682-4.682 0.394-1.019 0.669-2.182 0.744-3.882 0.075-1.707 0.094-2.251 0.094-6.595s-0.006-4.888-0.081-6.595zM29.087 22.473c-0.069 1.563-0.331 2.407-0.55 2.969-0.538 1.394-1.644 2.5-3.038 3.038-0.563 0.219-1.413 0.481-2.969 0.55-1.688 0.075-2.194 0.094-6.464 0.094s-4.782-0.019-6.464-0.094c-1.563-0.069-2.407-0.331-2.969-0.55-0.694-0.256-1.325-0.663-1.838-1.194-0.531-0.519-0.938-1.144-1.194-1.838-0.219-0.563-0.481-1.413-0.55-2.969-0.075-1.688-0.094-2.194-0.094-6.464s0.019-4.782 0.094-6.464c0.069-1.563 0.331-2.407 0.55-2.969 0.256-0.694 0.663-1.325 1.2-1.838 0.519-0.531 1.144-0.938 1.838-1.194 0.563-0.219 1.413-0.481 2.969-0.55 1.688-0.075 2.194-0.094 6.464-0.094 4.276 0 4.782 0.019 6.464 0.094 1.563 0.069 2.407 0.331 2.969 0.55 0.694 0.256 1.325 0.662 1.838 1.194 0.531 0.519 0.938 1.144 1.194 1.838 0.219 0.563 0.481 1.413 0.55 2.969 0.075 1.688 0.094 2.194 0.094 6.464s-0.019 4.77-0.094 6.458z"></path>
<path fill="#afb1b8" style="fill: var(--color4, #afb1b8)" d="M16.059 7.783c-4.538 0-8.22 3.682-8.22 8.22s3.682 8.22 8.22 8.22c4.539 0 8.22-3.682 8.22-8.22s-3.682-8.22-8.22-8.22zM16.059 21.335c-2.944 0-5.332-2.388-5.332-5.332s2.388-5.332 5.332-5.332c2.944 0 5.332 2.388 5.332 5.332s-2.388 5.332-5.332 5.332z"></path>
<path fill="#afb1b8" style="fill: var(--color4, #afb1b8)" d="M26.524 7.458c0 1.060-0.859 1.919-1.919 1.919s-1.919-0.859-1.919-1.919c0-1.060 0.859-1.919 1.919-1.919s1.919 0.859 1.919 1.919z"></path>
</symbol>
<symbol id="icon-linkedin" viewBox="0 0 32 32">
<path fill="#afb1b8" style="fill: var(--color4, #afb1b8)" d="M31.992 32v-0.001h0.008v-11.736c0-5.741-1.236-10.164-7.948-10.164-3.227 0-5.392 1.771-6.276 3.449h-0.093v-2.913h-6.364v21.364h6.627v-10.579c0-2.785 0.528-5.479 3.977-5.479 3.399 0 3.449 3.179 3.449 5.657v10.401h6.62z"></path>
<path fill="#afb1b8" style="fill: var(--color4, #afb1b8)" d="M0.528 10.636h6.635v21.364h-6.635v-21.364z"></path>
<path fill="#afb1b8" style="fill: var(--color4, #afb1b8)" d="M3.843 0c-2.121 0-3.843 1.721-3.843 3.843s1.721 3.879 3.843 3.879c2.121 0 3.843-1.757 3.843-3.879-0.001-2.121-1.723-3.843-3.843-3.843v0z"></path>
</symbol>
<symbol id="icon-group-6" viewBox="0 0 32 32">
<path fill="#afb1b8" style="fill: var(--color4, #afb1b8)" d="M11.576 22.278c0.005 0 0.009 0.001 0.013 0.003s0.008 0.004 0.011 0.008l0.062 0.065c-0.048 0.053-0.108 0.095-0.175 0.124-0.078 0.031-0.163 0.046-0.248 0.044-0.080 0.002-0.159-0.013-0.233-0.041-0.067-0.027-0.126-0.066-0.175-0.117-0.050-0.052-0.089-0.114-0.113-0.181-0.027-0.074-0.040-0.153-0.040-0.232-0.001-0.079 0.013-0.158 0.043-0.232 0.027-0.067 0.068-0.129 0.12-0.181 0.053-0.051 0.116-0.091 0.186-0.118 0.076-0.028 0.158-0.042 0.24-0.041 0.076-0.002 0.152 0.011 0.223 0.038 0.062 0.025 0.118 0.061 0.167 0.104l-0.052 0.070c-0.004 0.005-0.008 0.009-0.013 0.013-0.006 0.004-0.014 0.006-0.021 0.005s-0.016-0.003-0.023-0.007l-0.028-0.018-0.039-0.024c-0.017-0.009-0.034-0.016-0.052-0.023-0.023-0.008-0.047-0.014-0.071-0.018-0.030-0.005-0.061-0.008-0.092-0.007-0.059-0.001-0.118 0.010-0.172 0.031-0.051 0.020-0.097 0.049-0.135 0.087-0.039 0.040-0.069 0.088-0.088 0.139-0.022 0.059-0.033 0.121-0.032 0.184-0.001 0.063 0.010 0.127 0.032 0.186 0.019 0.051 0.048 0.098 0.086 0.138 0.036 0.038 0.080 0.067 0.129 0.086 0.051 0.020 0.105 0.030 0.16 0.030 0.032 0 0.063-0.002 0.095-0.006 0.051-0.006 0.1-0.023 0.144-0.050 0.022-0.014 0.042-0.029 0.061-0.046 0.008-0.007 0.018-0.011 0.030-0.012z"></path>
<path fill="#afb1b8" style="fill: var(--color4, #afb1b8)" d="M13.37 21.95c0.001 0.079-0.013 0.157-0.042 0.23-0.025 0.067-0.065 0.128-0.117 0.179s-0.114 0.091-0.184 0.117c-0.152 0.055-0.32 0.055-0.472 0-0.069-0.027-0.131-0.067-0.182-0.118-0.052-0.052-0.092-0.113-0.118-0.18-0.056-0.149-0.056-0.312 0-0.461 0.027-0.067 0.067-0.129 0.118-0.181 0.052-0.049 0.114-0.088 0.182-0.113 0.152-0.056 0.32-0.056 0.472 0 0.069 0.027 0.131 0.067 0.183 0.118s0.091 0.112 0.117 0.178c0.029 0.074 0.043 0.153 0.042 0.232zM13.207 21.95c0.001-0.063-0.009-0.125-0.030-0.185-0.017-0.051-0.046-0.098-0.083-0.138-0.036-0.038-0.081-0.068-0.131-0.087-0.11-0.040-0.233-0.040-0.343 0-0.050 0.019-0.095 0.049-0.131 0.087-0.038 0.040-0.066 0.087-0.084 0.138-0.040 0.12-0.040 0.25 0 0.37 0.018 0.051 0.046 0.098 0.084 0.138 0.036 0.038 0.081 0.067 0.131 0.087 0.111 0.039 0.233 0.039 0.343 0 0.050-0.019 0.095-0.049 0.131-0.087 0.037-0.040 0.066-0.087 0.083-0.138 0.021-0.060 0.031-0.122 0.030-0.185z"></path>
<path fill="#afb1b8" style="fill: var(--color4, #afb1b8)" d="M14.594 22.144l0.016 0.041c0.006-0.015 0.012-0.028 0.018-0.041s0.013-0.027 0.020-0.041l0.397-0.687c0.008-0.012 0.015-0.019 0.023-0.021 0.011-0.003 0.022-0.004 0.033-0.004h0.117v1.118h-0.139v-0.822c0-0.010 0-0.022 0-0.035s-0.001-0.026 0-0.038l-0.399 0.697c-0.005 0.010-0.013 0.019-0.023 0.025s-0.022 0.009-0.034 0.009h-0.023c-0.012 0-0.024-0.003-0.034-0.009s-0.018-0.015-0.023-0.026l-0.411-0.701c0 0.013 0 0.027 0 0.040s0 0.025 0 0.035v0.822h-0.134v-1.116h0.117c0.011-0.001 0.022 0.001 0.033 0.004 0.010 0.005 0.017 0.012 0.022 0.021l0.405 0.688c0.008 0.013 0.015 0.026 0.020 0.040z"></path>
<path fill="#afb1b8" style="fill: var(--color4, #afb1b8)" d="M16.087 22.089v0.419h-0.155v-1.116h0.346c0.065-0.001 0.131 0.007 0.193 0.024 0.050 0.014 0.097 0.037 0.137 0.070 0.034 0.030 0.061 0.068 0.078 0.11 0.018 0.046 0.027 0.094 0.026 0.143 0.001 0.049-0.009 0.098-0.029 0.143-0.019 0.043-0.047 0.081-0.084 0.112-0.040 0.034-0.087 0.059-0.137 0.074-0.060 0.018-0.124 0.027-0.187 0.026l-0.188-0.003zM16.087 21.969h0.188c0.041 0 0.081-0.005 0.12-0.017 0.032-0.010 0.062-0.027 0.087-0.048 0.023-0.020 0.041-0.046 0.053-0.074 0.013-0.030 0.019-0.062 0.019-0.094 0.002-0.031-0.003-0.062-0.016-0.091s-0.031-0.055-0.054-0.076c-0.059-0.044-0.134-0.066-0.209-0.060h-0.188v0.46z"></path>
<path fill="#afb1b8" style="fill: var(--color4, #afb1b8)" d="M18.174 22.509h-0.123c-0.012 0-0.024-0.003-0.034-0.010s-0.016-0.016-0.020-0.026l-0.106-0.27h-0.53l-0.11 0.27c-0.004 0.010-0.011 0.019-0.019 0.025-0.010 0.008-0.022 0.012-0.035 0.011h-0.123l0.466-1.118h0.162l0.472 1.118zM17.405 22.094h0.438l-0.185-0.455c-0.014-0.034-0.026-0.069-0.035-0.105l-0.018 0.058c-0.005 0.018-0.012 0.034-0.017 0.047l-0.183 0.454z"></path>
<path fill="#afb1b8" style="fill: var(--color4, #afb1b8)" d="M18.845 21.396c0.009 0.005 0.017 0.012 0.023 0.020l0.679 0.843c0-0.013 0-0.027 0-0.039s0-0.025 0-0.037v-0.792h0.139v1.118h-0.078c-0.011 0-0.022-0.002-0.032-0.007s-0.018-0.012-0.025-0.021l-0.679-0.842c0.001 0.013 0.001 0.026 0 0.038s0 0.024 0 0.034v0.797h-0.139v-1.118h0.082c0.010-0 0.019 0.002 0.028 0.005z"></path>
<path fill="#afb1b8" style="fill: var(--color4, #afb1b8)" d="M20.831 22.064v0.444h-0.155v-0.444l-0.429-0.673h0.139c0.012-0.001 0.024 0.003 0.033 0.010 0.008 0.007 0.016 0.016 0.021 0.025l0.269 0.434c0.011 0.018 0.020 0.035 0.028 0.052s0.014 0.032 0.019 0.047l0.020-0.048c0.008-0.018 0.016-0.035 0.026-0.051l0.265-0.437c0.006-0.009 0.012-0.017 0.020-0.024 0.009-0.008 0.021-0.012 0.033-0.011h0.141l-0.43 0.676z"></path>
<path fill="#afb1b8" style="fill: var(--color4, #afb1b8)" d="M14.517 19.515c0.068 0.008 0.136 0.015 0.205 0.021 1.048-0.447 1.934-1.177 2.548-2.101s0.929-2 0.905-3.093l-1.155-1.1c0.235 1.164 0.125 2.367-0.317 3.475s-1.199 2.077-2.186 2.798z"></path>
<path fill="#afb1b8" style="fill: var(--color4, #afb1b8)" d="M14.104 19.464l0.031 0.006c1.055-0.719 1.859-1.723 2.309-2.882s0.524-2.42 0.213-3.62l-1.645-1.567c0.665 1.288 0.933 2.729 0.772 4.156s-0.744 2.782-1.681 3.906z"></path>
<path fill="#afb1b8" style="fill: var(--color4, #afb1b8)" d="M19.682 15.634c-0.279 1.201-0.958 2.285-1.935 3.089-0.285 0.236-0.593 0.447-0.919 0.629 0.796-0.223 1.527-0.617 2.137-1.151s1.084-1.196 1.384-1.932l-0.667-0.635z"></path>
<path fill="#afb1b8" style="fill: var(--color4, #afb1b8)" d="M19.42 15.457l-0.95-0.905c-0.018 1.032-0.326 2.040-0.891 2.92s-1.368 1.599-2.324 2.084h0.005c0.213-0 0.426-0.012 0.637-0.036 0.894-0.347 1.683-0.9 2.298-1.609s1.036-1.552 1.225-2.453z"></path>
<path fill="#afb1b8" style="fill: var(--color4, #afb1b8)" d="M14.242 10.741l-1.133-1.081c-1.013 0.373-1.884 1.028-2.499 1.881s-0.946 1.862-0.949 2.896v0c0.004 1.143 0.408 2.252 1.148 3.152s1.774 1.539 2.938 1.816c1.039-1.206 1.647-2.696 1.737-4.255s-0.345-3.103-1.24-4.409z"></path>
<path fill="#afb1b8" style="fill: var(--color4, #afb1b8)" d="M22.038 15.29c-0.004-1.356-0.571-2.656-1.578-3.615s-2.37-1.499-3.794-1.503c-0.658-0.001-1.31 0.115-1.923 0.341l6.936 6.609c0.238-0.584 0.359-1.205 0.359-1.832z"></path>
</symbol>
<symbol id="icon-header-button__menu" viewBox="0 0 32 32">
<path d="M0 8.889v-3.556h32v3.556h-32zM0 17.778h32v-3.556h-32v3.556zM0 26.667h32v-3.556h-32v3.556z"></path>
</symbol>
<symbol id="icon-modal_icon--person" viewBox="0 0 32 32">
<path d="M16 16c2.947 0 5.333-2.387 5.333-5.333s-2.387-5.333-5.333-5.333c-2.947 0-5.333 2.387-5.333 5.333s2.387 5.333 5.333 5.333zM16 18.667c-3.56 0-10.667 1.787-10.667 5.333v1.333c0 0.733 0.6 1.333 1.333 1.333h18.667c0.733 0 1.333-0.6 1.333-1.333v-1.333c0-3.547-7.107-5.333-10.667-5.333z"></path>
</symbol>
<symbol id="icon-modal_icon--phone" viewBox="0 0 32 32">
<path d="M24.881 19.774l-3.268-0.373c-0.785-0.090-1.557 0.18-2.11 0.733l-2.367 2.367c-3.641-1.853-6.626-4.825-8.478-8.478l2.38-2.38c0.553-0.553 0.823-1.325 0.733-2.11l-0.373-3.242c-0.154-1.299-1.248-2.277-2.56-2.277h-2.226c-1.454 0-2.663 1.209-2.573 2.663 0.682 10.987 9.469 19.761 20.443 20.443 1.454 0.090 2.663-1.119 2.663-2.573v-2.226c0.013-1.299-0.965-2.393-2.264-2.547z"></path>
</symbol>
<symbol id="icon-twitter" viewBox="0 0 32 32">
<path fill="#afb1b8" style="fill: var(--color4, #afb1b8)" d="M32 6.078c-1.19 0.522-2.458 0.868-3.78 1.036 1.36-0.812 2.398-2.088 2.886-3.626-1.268 0.756-2.668 1.29-4.16 1.588-1.204-1.282-2.92-2.076-4.792-2.076-3.632 0-6.556 2.948-6.556 6.562 0 0.52 0.044 1.020 0.152 1.496-5.454-0.266-10.28-2.88-13.522-6.862-0.566 0.982-0.898 2.106-0.898 3.316 0 2.272 1.17 4.286 2.914 5.452-1.054-0.020-2.088-0.326-2.964-0.808 0 0.020 0 0.046 0 0.072 0 3.188 2.274 5.836 5.256 6.446-0.534 0.146-1.116 0.216-1.72 0.216-0.42 0-0.844-0.024-1.242-0.112 0.85 2.598 3.262 4.508 6.13 4.57-2.232 1.746-5.066 2.798-8.134 2.798-0.538 0-1.054-0.024-1.57-0.090 2.906 1.874 6.35 2.944 10.064 2.944 12.072 0 18.672-10 18.672-18.668 0-0.29-0.010-0.57-0.024-0.848 1.302-0.924 2.396-2.078 3.288-3.406z"></path>
</symbol>
<symbol id="icon-principle_pc" viewBox="0 0 32 32">
<path d="M1.599 28.291h25.587c0.883 0 1.599-0.716 1.599-1.599v-2.132c0-0.883-0.716-1.599-1.599-1.599h-0.533v-13.293l3.028-2.868c0.703 0.346 1.553 0.136 2.013-0.499s0.396-1.508-0.152-2.068-1.42-0.644-2.065-0.198c-0.644 0.446-0.873 1.292-0.542 2.002l-2.281 2.163v-1.23c0-0.883-0.716-1.599-1.599-1.599h-21.322c-0.883 0-1.599 0.716-1.599 1.599v15.992h-0.533c-0.883 0-1.599 0.716-1.599 1.599v2.132c0 0.883 0.716 1.599 1.599 1.599zM30.384 4.837c0.294 0 0.533 0.239 0.533 0.533s-0.239 0.533-0.533 0.533c-0.294 0-0.533-0.239-0.533-0.533s0.239-0.533 0.533-0.533zM3.198 6.969c0-0.294 0.239-0.533 0.533-0.533h21.322c0.294 0 0.533 0.239 0.533 0.533v2.239l-1.066 1.013v-2.186c0-0.294-0.239-0.533-0.533-0.533h-19.19c-0.294 0-0.533 0.239-0.533 0.533v13.326c0 0.294 0.239 0.533 0.533 0.533h19.19c0.294 0 0.533-0.239 0.533-0.533v-9.674l1.066-1.010v12.284h-22.388v-15.992zM7.996 13.898c-0.721-0.002-1.354 0.478-1.546 1.174s0.105 1.433 0.725 1.801c0.62 0.368 1.41 0.276 1.928-0.226l1.853 0.93c0.215 0.108 0.476 0.057 0.636-0.123l3.939-4.431 3.872 2.901c0.208 0.156 0.498 0.139 0.686-0.039l3.365-3.188v8.131h-18.124v-12.26h18.124v2.66l-3.771 3.572-3.904-2.927c-0.222-0.166-0.534-0.135-0.718 0.072l-3.993 4.493-1.493-0.746c0.011-0.064 0.018-0.129 0.020-0.193 0-0.883-0.716-1.599-1.599-1.599zM8.529 15.498c0 0.294-0.239 0.533-0.533 0.533s-0.533-0.239-0.533-0.533c0-0.294 0.239-0.533 0.533-0.533s0.533 0.239 0.533 0.533zM11.727 24.026h5.331v0.533c0 0.294-0.239 0.533-0.533 0.533h-4.264c-0.294 0-0.533-0.239-0.533-0.533v-0.533zM1.066 24.56c0-0.294 0.239-0.533 0.533-0.533h9.062v0.533c0 0.883 0.716 1.599 1.599 1.599h4.264c0.883 0 1.599-0.716 1.599-1.599v-0.533h9.062c0.294 0 0.533 0.239 0.533 0.533v2.132c0 0.294-0.239 0.533-0.533 0.533h-25.587c-0.294 0-0.533-0.239-0.533-0.533v-2.132z"></path>
</symbol>
<symbol id="icon-modal_envelope" viewBox="0 0 32 32">
<path d="M28 4h-24c-1.65 0-2.985 1.35-2.985 3l-0.015 18c0 1.65 1.35 3 3 3h24c1.65 0 3-1.35 3-3v-18c0-1.65-1.35-3-3-3zM27.4 10.375l-10.605 6.63c-0.48 0.3-1.11 0.3-1.59 0l-10.605-6.63c-0.375-0.24-0.6-0.645-0.6-1.080 0-1.005 1.095-1.605 1.95-1.080l10.050 6.285 10.050-6.285c0.855-0.525 1.95 0.075 1.95 1.080 0 0.435-0.225 0.84-0.6 1.080z"></path>
</symbol>
<symbol id="icon-modal-phone" viewBox="0 0 32 32">
<path d="M27.419 20.852l-4.202-0.48c-1.009-0.116-2.001 0.232-2.713 0.943l-3.044 3.044c-4.681-2.382-8.519-6.203-10.901-10.901l3.060-3.060c0.711-0.711 1.059-1.704 0.943-2.713l-0.48-4.168c-0.198-1.671-1.604-2.928-3.292-2.928h-2.862c-1.869 0-3.424 1.555-3.308 3.424 0.877 14.126 12.174 25.408 26.284 26.284 1.869 0.116 3.424-1.439 3.424-3.308v-2.861c0.016-1.671-1.241-3.077-2.911-3.275v0z"></path>
</symbol>
<symbol id="icon-modal_man" viewBox="0 0 32 32">
<path d="M16 16c4.42 0 8-3.58 8-8s-3.58-8-8-8c-4.42 0-8 3.58-8 8s3.58 8 8 8zM16 20c-5.34 0-16 2.68-16 8v2c0 1.1 0.9 2 2 2h28c1.1 0 2-0.9 2-2v-2c0-5.32-10.66-8-16-8z"></path>
</symbol>
<symbol id="icon-modal_square--no-agree" viewBox="0 0 32 32">
<path d="M28.444 4.333v23.333h-24.889v-23.333h24.889zM28.444 1h-24.889c-1.956 0-3.556 1.5-3.556 3.333v23.333c0 1.833 1.6 3.333 3.556 3.333h24.889c1.956 0 3.556-1.5 3.556-3.333v-23.333c0-1.833-1.6-3.333-3.556-3.333z"></path>
</symbol>
<symbol id="icon-header-phone" viewBox="0 0 32 32">
<path fill="#757575" style="fill: var(--color3, #757575)" d="M24 0h-16c-1.891 0-3.429 1.346-3.429 3v26c0 1.654 1.538 3 3.429 3h16c1.891 0 3.429-1.346 3.429-3v-26c0-1.654-1.538-3-3.429-3zM8 2h16c0.631 0 1.143 0.448 1.143 1v21h-18.286v-21c0-0.552 0.512-1 1.143-1zM24 30h-16c-0.631 0-1.143-0.448-1.143-1v-3h18.286v3c0 0.552-0.512 1-1.143 1z"></path>
</symbol>
<symbol id="icon-principle_clock" viewBox="0 0 31 32">
<path d="M30.84 15.301c-0.002-8.452-6.855-15.303-15.308-15.301s-15.303 6.855-15.301 15.308c0.001 6.658 4.307 12.551 10.649 14.576 0.061 0.019 0.124 0.029 0.187 0.029 0.121-0 0.239-0.032 0.342-0.094 0.135-0.080 0.236-0.207 0.283-0.356l3.865-12.25c1.057-0.005 1.909-0.866 1.903-1.923s-0.866-1.909-1.923-1.903c-0.284 0.001-0.565 0.067-0.82 0.191l-5.106-5.107c-0.253-0.245-0.657-0.238-0.902 0.016-0.239 0.247-0.239 0.639 0 0.886l5.103 5.109c-0.392 0.799-0.168 1.764 0.536 2.309l-3.683 11.673c-7.278-2.681-11.004-10.754-8.323-18.032s10.754-11.004 18.032-8.323 11.004 10.754 8.323 18.032c-1.31 3.556-4.001 6.431-7.462 7.973l-0.398-1.874c-0.073-0.344-0.411-0.565-0.756-0.492-0.109 0.023-0.209 0.074-0.292 0.148l-3.837 3.426c-0.263 0.234-0.287 0.637-0.052 0.9 0.076 0.085 0.174 0.149 0.283 0.184l4.899 1.563c0.335 0.108 0.694-0.077 0.802-0.412 0.034-0.106 0.040-0.219 0.017-0.328l-0.391-1.839c5.664-2.388 9.342-7.942 9.329-14.089zM15.535 14.664c0.352 0 0.638 0.286 0.638 0.638s-0.286 0.638-0.638 0.638c-0.352 0-0.638-0.285-0.638-0.638s0.285-0.638 0.638-0.638zM17.635 29.528l2.184-1.948 0.603 2.84-2.787-0.892z"></path>
</symbol>
</defs>
</svg>
