<svg aria-hidden="true" style="position:absolute;width:0;height:0;overflow:hidden" xmlns="http://www.w3.org/2000/svg"><defs><symbol id="icon-principle_astronaut" viewBox="0 0 32 32"><path fill="#2196f3" style="fill:var(--color1, #2196f3)" d="M31.974 4.524a.534.534 0 0 0-.43-.363l-1.91-.278-.855-1.731c-.179-.365-.777-.365-.956 0l-.855 1.731-1.91.278a.535.535 0 0 0-.296.91l1.383 1.348-.326 1.903c-.034.2.048.402.212.522a.53.53 0 0 0 .562.04l1.709-.899 1.709.899a.536.536 0 0 0 .775-.563l-.326-1.903 1.383-1.348a.536.536 0 0 0 .135-.547zm-2.463 1.327a.534.534 0 0 0-.153.472l.191 1.114-1-.526a.533.533 0 0 0-.498 0l-1.001.526.191-1.114a.534.534 0 0 0-.153-.472l-.81-.789 1.119-.163a.532.532 0 0 0 .402-.292l.5-1.013.5 1.013a.535.535 0 0 0 .402.292l1.119.163-.809.789zM26.134 20.522h-1.067v1.067h1.067v-1.067zM26.134 22.656h-1.067v1.067h1.067v-1.067zM27.2 21.589h-1.067v1.067H27.2v-1.067zM25.067 21.589H24v1.067h1.067v-1.067zM22.4 26.389h-1.067v1.067H22.4v-1.067zM22.4 28.522h-1.067v1.067H22.4v-1.067zM23.467 27.456H22.4v1.067h1.067v-1.067zM21.333 27.456h-1.067v1.067h1.067v-1.067zM16 24.256h-1.067v1.067H16v-1.067zM16 26.389h-1.067v1.067H16v-1.067zM17.067 25.322H16v1.067h1.067v-1.067zM14.933 25.322h-1.067v1.067h1.067v-1.067zM5.867 6.122H4.8v1.067h1.067V6.122zM5.867 8.255H4.8v1.067h1.067V8.255z"/><path fill="#2196f3" style="fill:var(--color1, #2196f3)" d="M6.933 7.189H5.866v1.067h1.067V7.189zM4.8 7.189H3.733v1.067H4.8V7.189z"/><path fill="#212121" style="fill:var(--color2, #212121)" d="M24.715 14.159a1.775 1.775 0 0 0-1.188-.705 1.778 1.778 0 0 0-1.34.352l-1.252.96-1.898 1.417-1.358-.541c2.421-1.086 4.114-3.508 4.114-6.32 0-3.823-3.123-6.933-6.961-6.933s-6.961 3.11-6.961 6.933a6.86 6.86 0 0 0 1.12 3.758l-2.764-.024h-.005c-.009 0-.015.004-.023.005a.515.515 0 0 0-.155.031l-.038.013c-.006.003-.013.003-.019.006l-3.233 1.596-.001.001-1.893.911a.397.397 0 0 0-.063.035 1.779 1.779 0 0 0-.598 2.295c.22.429.595.745 1.056.889a1.776 1.776 0 0 0 1.378-.128l1.388-.738 2.264-1.169 1.357-.008L2.2 22.211l-.002.001-1.339 1.333c-.316.315-.49.732-.49 1.178s.174.863.49 1.179c.325.323.752.485 1.179.485s.854-.162 1.18-.485l1.314-1.309 1.741-1.3.901.897-1.762 1.754-.002.001-1.339 1.333c-.316.315-.49.732-.49 1.178s.174.863.49 1.179c.325.323.753.485 1.18.485s.855-.162 1.18-.485l3.482-3.467.001-.002 1.01-1-.004-.004c.006-.006.015-.009.022-.015l5.166-5.658 3.471.494a.52.52 0 0 0 .262-.033c.018-.006.033-.015.05-.023.019-.01.039-.015.058-.027l3.213-2.133c.012-.008.018-.021.029-.029.013-.01.029-.014.041-.026l1.271-1.191c.662-.62.753-1.635.212-2.362zM2.13 17.77a.714.714 0 0 1-.558.052.717.717 0 0 1-.213-1.26l1.314-.632.449 1.312-.992.527zm3.498-1.828-1.548.8-.439-1.283 2.027-1.001-.04 1.484zm15.099-6.62a5.79 5.79 0 0 1-.599 2.559l-4.181-1.899a1.863 1.863 0 0 0-.788-1.388l1.464-4.86c2.378.756 4.105 2.974 4.105 5.588zm-11.789 0c0-3.235 2.644-5.867 5.894-5.867.253 0 .5.021.745.052l-1.432 4.754c-.019-.001-.037-.006-.057-.006-1.033 0-1.873.837-1.873 1.867s.84 1.867 1.873 1.867c.694 0 1.294-.383 1.618-.945l3.862 1.755a5.894 5.894 0 0 1-4.737 2.39c-3.25 0-5.894-2.632-5.894-5.867zm5.956.8c0 .441-.362.8-.806.8s-.806-.359-.806-.8c0-.441.362-.8.806-.8s.806.359.806.8zM2.465 25.146a.608.608 0 0 1-.854.001.592.592 0 0 1 0-.844l.962-.958.851.848-.959.955zm3.214 3.734a.608.608 0 0 1-.855.001.592.592 0 0 1 0-.844l.963-.959.852.848-.96.955zm3.481-3.469-.002.001-1.765 1.76-.852-.848 1.763-1.755.002-.001c.04-.04.065-.088.09-.135.007-.014.02-.026.026-.04.017-.041.019-.085.026-.129.003-.025.014-.047.014-.073 0-.036-.013-.07-.02-.106-.006-.032-.006-.065-.019-.095a.55.55 0 0 0-.091-.138c-.01-.012-.014-.027-.025-.038h-.001l-.001-.002-1.607-1.6c-.017-.017-.039-.024-.058-.038a.507.507 0 0 0-.087-.058.515.515 0 0 0-.093-.033.507.507 0 0 0-.103-.02.5.5 0 0 0-.095.005.53.53 0 0 0-.104.02.477.477 0 0 0-.094.045c-.02.011-.042.015-.061.029L4.23 23.486l-.901-.897 2.399-2.386 4.361 4.289-.928.919zm6.819-7.017c-.015-.002-.03.004-.045.003a.556.556 0 0 0-.3.075.492.492 0 0 0-.083.061c-.013.011-.028.017-.04.029l-4.698 5.146-4.328-4.257 2.833-2.818a.534.534 0 0 0-.379-.911v-.001l-2.219.013.028-1.607 3.104.027a6.947 6.947 0 0 0 4.981 2.101c.437 0 .864-.045 1.279-.123.04.032.079.065.13.085l2.41.96.152.758.178.885-3.003-.427zm4.041.178-.313-1.558 1.446-1.08.947 1.257-2.08 1.381zm3.754-2.831-.838.785-.931-1.236.831-.637a.735.735 0 0 1 .543-.143.718.718 0 0 1 .48.284.713.713 0 0 1-.085.947z"/><path fill="#212121" style="fill:var(--color2, #212121)" d="m13.602 18.544-2.143-2.133a.534.534 0 0 0-.753 0l-2.142 2.133a.537.537 0 0 0 0 .756l2.142 2.133a.536.536 0 0 0 .753 0l2.143-2.133a.535.535 0 0 0 0-.756zm-2.519 1.759-1.387-1.381 1.387-1.381 1.387 1.381-1.387 1.381zM17.164 5.071l-.258 1.036c.071.018 1.738.452 1.738 2.149h1.067c0-2.017-1.666-2.965-2.547-3.185zM19.711 9.322h-1.067v1.067h1.067V9.322z"/></symbol><symbol id="icon-header_mobileclose--clouse" viewBox="0 0 32 32"><path d="M31.439 3.166 28.273 0 15.72 12.553 3.167 0 .001 3.166l12.553 12.553L.001 28.272l3.166 3.166L15.72 18.885l12.553 12.553 3.166-3.166-12.553-12.553L31.439 3.166z"/></symbol><symbol id="icon-modal_button--clouse" viewBox="0 0 32 32"><path d="m26.667 7.303-1.97-1.97-7.808 7.808-7.808-7.808-1.97 1.97 7.808 7.808-7.808 7.808 1.97 1.97 7.808-7.808 7.808 7.808 1.97-1.97-7.808-7.808 7.808-7.808z"/></symbol><symbol id="icon-envelope" viewBox="0 0 32 32"><path fill="#757575" style="fill:var(--color3, #757575)" d="M29 4.571H3c-1.654 0-3 1.282-3 2.857v17.143c0 1.576 1.346 2.857 3 2.857h26c1.654 0 3-1.282 3-2.857V7.428c0-1.576-1.346-2.857-3-2.857zm0 1.905c.136 0 .265.027.383.074L16 17.597 2.617 6.55c.118-.047.247-.074.383-.074h26zm0 19.048H3c-.552 0-1-.427-1-.952V8.563l13.345 11.015c.188.155.422.233.655.233s.467-.077.655-.233L30 8.563v16.009c0 .526-.448.952-1 .952z"/></symbol><symbol id="icon-facebook" viewBox="0 0 32 32"><path fill="#afb1b8" style="fill:var(--color4, #afb1b8)" d="M21.33 5.313h2.921V.225C23.747.156 22.014 0 19.995 0c-4.212 0-7.097 2.649-7.097 7.519V12H8.25v5.688h4.648V32h5.699V17.689h4.46l.708-5.688h-5.169V8.082c.001-1.644.444-2.769 2.735-2.769z"/></symbol><symbol id="icon-group-1" viewBox="0 0 32 32"><path fill="#afb1b8" style="fill:var(--color4, #afb1b8)" d="m5.44 0 4.677 4.428h13.046v12.351l4.677 4.428V.001H5.44z"/><path fill="#afb1b8" style="fill:var(--color4, #afb1b8)" d="M1.6 4.241v20.6h21.76v-8.188L10.255 4.247 1.6 4.242zm17.615 17.587H5.043V7.974h1.002V20.89h13.17v.938zM7.866 28.662l.523-1.078h.438l-.762 1.438v.837h-.397v-.837l-.764-1.438h.439l.523 1.078zm2.247.667h-.881l-.184.53h-.411l.859-2.275h.355l.861 2.275H10.3l-.186-.53zm-.77-.319h.659l-.33-.944-.33.944zm2.328.234c0-.105.029-.202.086-.289.057-.089.17-.193.339-.314-.088-.111-.151-.206-.186-.284s-.052-.154-.052-.227c0-.178.054-.319.162-.422s.254-.156.438-.156a.57.57 0 0 1 .406.147.47.47 0 0 1 .159.361.5.5 0 0 1-.072.262.879.879 0 0 1-.236.238l-.155.113.439.519a.9.9 0 0 0 .095-.417h.33c0 .28-.066.51-.197.689l.334.395h-.441l-.128-.152c-.162.122-.356.183-.581.183s-.405-.059-.541-.178a.599.599 0 0 1-.202-.467zm.753.343a.58.58 0 0 0 .359-.128l-.497-.586-.048.034c-.125.095-.188.203-.188.325 0 .105.034.191.102.256s.158.098.272.098zm-.21-1.466c0 .087.054.197.161.33l.173-.119.048-.039a.28.28 0 0 0 .097-.22.2.2 0 0 0-.067-.152.236.236 0 0 0-.17-.064c-.074 0-.133.025-.177.075s-.066.113-.066.189zm4.133.997a.827.827 0 0 1-.269.569c-.156.135-.364.203-.623.203a.902.902 0 0 1-.48-.128c-.137-.086-.244-.209-.319-.367s-.114-.342-.117-.552v-.212c0-.215.038-.404.114-.567a.86.86 0 0 1 .821-.511c.251 0 .453.068.606.205s.242.329.267.578h-.394c-.019-.164-.067-.281-.144-.353-.076-.073-.188-.109-.336-.109a.464.464 0 0 0-.397.189c-.092.125-.139.309-.141.552v.202c0 .246.044.433.131.563s.218.194.387.194c.155 0 .272-.035.35-.105s.128-.186.148-.348h.394zm2.17-.338c0 .223-.039.419-.116.588a.877.877 0 0 1-.331.388.905.905 0 0 1-.494.134.926.926 0 0 1-.494-.134.896.896 0 0 1-.334-.386 1.362 1.362 0 0 1-.119-.576v-.128c0-.222.039-.418.117-.588a.887.887 0 0 1 .333-.389c.144-.091.308-.136.494-.136s.349.045.492.134c.144.088.255.217.333.384s.118.361.119.583v.127zm-.395-.118c0-.252-.048-.445-.144-.58a.468.468 0 0 0-.405-.202.467.467 0 0 0-.402.202c-.096.133-.145.322-.147.567v.131c0 .25.048.443.145.58a.473.473 0 0 0 .406.205.464.464 0 0 0 .403-.2c.095-.133.142-.328.142-.584v-.119z"/></symbol><symbol id="icon-group-2" viewBox="0 0 32 32"><path fill="#afb1b8" style="fill:var(--color4, #afb1b8)" d="M14.14 1.806h.084c.156 0 .324.016.49.03.734.052 1.463.162 2.179.329V.403a12.97 12.97 0 0 0-2.25-.358 18.11 18.11 0 0 0-.909-.044h-.263a18.35 18.35 0 0 0-4.515.582 18.3 18.3 0 0 0-4.79 1.948v17.475a19.484 19.484 0 0 1 4.566-1.779 19.948 19.948 0 0 1 3.833-.588h.051c.216-.011.433-.017.655-.019v-1.79a21.155 21.155 0 0 0-4.982.662 23.81 23.81 0 0 0-1.731.513l-.623.211V3.591l.266-.128a17.409 17.409 0 0 1 6.471-1.651.523.523 0 0 1 .056 0c.248-.013.497-.019.741-.019h.28c.129.003.258.006.388.014z"/><path fill="#afb1b8" style="fill:var(--color4, #afb1b8)" d="M18.53 3.651a15.823 15.823 0 0 1-2.606-.211c-.277-.047-.55-.103-.814-.164v17.275a13.82 13.82 0 0 0 3.425.404 18.396 18.396 0 0 0 4.515-.581 18.362 18.362 0 0 0 4.792-1.948V1.263a19.562 19.562 0 0 1-4.564 1.781 19.388 19.388 0 0 1-4.747.609zm6.907.299.623-.21v13.63l-.266.128a17.055 17.055 0 0 1-3.184 1.144c-1.331.344-2.7.522-4.074.527-.411 0-.819-.017-1.214-.052l-.427-.038V5.062l.497.033c.361.023.735.034 1.141.034a21.098 21.098 0 0 0 5.173-.663 26.802 26.802 0 0 0 1.731-.518zM5.377 25.977a.912.912 0 0 0-.693-.28 1.034 1.034 0 0 0-.4.075.91.91 0 0 0-.512.518 1.023 1.023 0 0 0-.072.387v2.335c-.006.165.026.328.092.479.055.12.135.226.234.313a.815.815 0 0 0 .321.166c.114.032.231.048.349.049a.972.972 0 0 0 .892-.61.951.951 0 0 0 .075-.372v-.261h-.61v.208a.528.528 0 0 1-.036.208.359.359 0 0 1-.089.131.365.365 0 0 1-.128.067.425.425 0 0 1-.128.022.314.314 0 0 1-.286-.125.548.548 0 0 1-.081-.313v-2.177a.738.738 0 0 1 .075-.349.31.31 0 0 1 .299-.141.33.33 0 0 1 .272.131c.068.09.104.2.101.313v.202h.604v-.238a1.093 1.093 0 0 0-.279-.737zM9.002 25.95a1.051 1.051 0 0 0-1.38 0 .961.961 0 0 0-.237.327 1.099 1.099 0 0 0-.089.452v2.239a1.08 1.08 0 0 0 .089.459c.055.12.136.227.237.313a.94.94 0 0 0 .322.197 1.028 1.028 0 0 0 .728 0c.121-.044.233-.111.33-.197a.948.948 0 0 0 .23-.313 1.08 1.08 0 0 0 .089-.459v-2.239a1.08 1.08 0 0 0-.089-.452 1.015 1.015 0 0 0-.23-.327zm-.285 3.019a.405.405 0 0 1-.121.324.445.445 0 0 1-.574 0 .397.397 0 0 1-.121-.324V26.73a.405.405 0 0 1 .121-.324.445.445 0 0 1 .574 0 .397.397 0 0 1 .121.324v2.239zM13.764 29.969V25.73h-.587l-.771 2.244h-.011l-.777-2.244h-.581v4.239h.606V27.39h.011l.593 1.823h.302l.598-1.823h.011v2.579h.606zM17.205 26.027a.84.84 0 0 0-.343-.232 1.363 1.363 0 0 0-.439-.066h-.9v4.239h.604v-1.656h.311c.189.009.376-.031.545-.116a.882.882 0 0 0 .332-.324 1.02 1.02 0 0 0 .139-.369c.024-.16.035-.321.033-.482a2.421 2.421 0 0 0-.059-.606.898.898 0 0 0-.223-.39zm-.311 1.292a.547.547 0 0 1-.056.221.346.346 0 0 1-.156.149.619.619 0 0 1-.285.053h-.276v-1.441h.311a.578.578 0 0 1 .272.053.349.349 0 0 1 .142.157.62.62 0 0 1 .053.236v.282c0 .099.006.2 0 .291h-.006zM20.066 25.73h-.495l-.934 4.239h.604l.177-.911h.823l.177.911h.604l-.957-4.239zm-.557 2.751.297-1.537h.011l.296 1.537h-.604zM23.969 28.284h-.011l-.912-2.554h-.581v4.239h.604V27.42h.012l.923 2.549h.568V25.73h-.604v2.554zM27.66 25.73l-.486 1.685h-.012l-.486-1.685h-.64l.83 2.447v1.792h.604v-1.792l.83-2.447h-.64zM3.692 31.166h.291v.817h.198v-.817h.29v-.167h-.778v.167zM6.14 30.998l-.381.984h.21l.081-.224h.392l.084.224h.215l-.391-.984h-.21zm-.031.595.134-.365.134.365h-.268zM8.559 31.62h.227v.127a.38.38 0 0 1-.233.083.244.244 0 0 1-.209-.093.411.411 0 0 1-.073-.257c0-.219.095-.329.283-.329a.206.206 0 0 1 .222.157l.195-.038c-.042-.192-.181-.289-.417-.289a.495.495 0 0 0-.344.127.494.494 0 0 0-.141.379.532.532 0 0 0 .126.369.477.477 0 0 0 .374.144.59.59 0 0 0 .417-.157v-.388h-.427v.166zM11.029 30.998h-.199v.984h.69v-.167h-.49v-.817zM13.119 30.998h-.199v.984h.199v-.984zM15.161 31.656l-.403-.657h-.193v.984h.185v-.643l.395.643h.198v-.984h-.182v.657zM17.007 31.549h.49v-.167h-.49v-.216h.528v-.167h-.727v.984h.747v-.167h-.548v-.266zM21.484 31.387h-.388v-.388h-.198v.984h.198v-.43h.388v.43h.198v-.984h-.198v.388zM23.342 31.549h.492v-.167h-.492v-.216h.529v-.167h-.727v.984h.746v-.167h-.548v-.266zM25.861 31.549c.171-.027.258-.117.258-.274a.236.236 0 0 0-.096-.219.553.553 0 0 0-.288-.058h-.417v.984h.198v-.412h.039a.261.261 0 0 1 .123.022.21.21 0 0 1 .07.072l.215.313h.237l-.12-.192a.685.685 0 0 0-.218-.236zm-.2-.136h-.146v-.247h.156a.526.526 0 0 1 .201.023c.014.013.026.029.033.046a.133.133 0 0 1-.005.111.128.128 0 0 1-.037.043.547.547 0 0 1-.201.023zM27.759 31.549h.49v-.167h-.49v-.216h.529v-.167h-.729v.984h.747v-.167h-.548v-.266z"/></symbol><symbol id="icon-group-3" viewBox="0 0 32 32"><path fill="#2196f3" style="fill:var(--color1, #2196f3)" d="M4.961 12.532H4.96c-.905 0-1.639.715-1.639 1.597v.001c0 .882.734 1.597 1.639 1.597h.001c.905 0 1.639-.715 1.639-1.597v-.001c0-.882-.734-1.597-1.639-1.597zM17.055 12.022c-.003-1.225-.503-2.399-1.392-3.265S13.57 7.403 12.313 7.4c-1.257.002-2.462.49-3.351 1.356s-1.39 2.041-1.392 3.266v6.754s9.484-1.029 9.485-6.753v-.001zM0 20.993c.002.852.351 1.669.969 2.272s1.456.942 2.331.945c.874-.002 1.712-.342 2.33-.945s.967-1.419.969-2.271v-4.7S0 17.011 0 20.993zm3.3.842c-.171 0-.338-.049-.48-.142s-.253-.224-.318-.378a.821.821 0 0 1 .187-.918.886.886 0 0 1 .941-.182.865.865 0 0 1 .388.31.825.825 0 0 1-.106 1.065c-.08.079-.176.141-.281.183s-.218.064-.331.064v-.003zM10.036 21.312h-.675v.697h-.352v-1.706h1.111v.285h-.759v.441h.675v.284zm1.689-.117c0 .168-.03.315-.089.442a.671.671 0 0 1-.635.396.678.678 0 0 1-.637-.393 1.009 1.009 0 0 1-.093-.436v-.084c0-.168.03-.316.09-.443a.679.679 0 0 1 .637-.397.673.673 0 0 1 .636.397c.061.128.091.275.091.442v.076zm-.356-.077c0-.179-.032-.315-.096-.408s-.155-.139-.274-.139c-.118 0-.209.046-.273.138s-.097.226-.097.403v.083c0 .174.032.309.096.405s.156.144.277.144c.118 0 .209-.046.272-.138s.095-.228.096-.405v-.083zm1.497.444c0-.066-.023-.117-.07-.152s-.131-.073-.253-.112a1.853 1.853 0 0 1-.289-.117c-.194-.105-.291-.246-.291-.423 0-.092.026-.174.077-.246s.127-.129.224-.17c.098-.041.207-.061.328-.061s.23.022.326.067a.495.495 0 0 1 .301.46h-.352c0-.078-.025-.139-.074-.182s-.118-.066-.207-.066c-.086 0-.153.018-.2.055s-.071.084-.071.143c0 .055.028.102.083.139s.139.073.247.105c.2.06.346.135.437.224s.137.2.137.333c0 .148-.056.264-.168.348s-.262.125-.451.125c-.131 0-.251-.024-.359-.071s-.19-.114-.247-.198a.51.51 0 0 1-.084-.291h.353c0 .188.112.282.337.282.084 0 .149-.017.196-.05s.07-.082.07-.143zm1.876-.974h-.523v1.421h-.352v-1.421h-.516v-.285h1.39v.285zm1.228.682h-.675v.457h.792v.282h-1.144v-1.706h1.141v.285h-.79v.407h.675v.275zm.955.115h-.28v.625h-.352v-1.706h.634c.202 0 .357.045.466.135s.164.217.164.381c0 .116-.025.214-.076.292s-.126.139-.229.185l.369.697v.016h-.377l-.32-.625zm-.28-.285h.284c.088 0 .157-.022.205-.067s.073-.107.073-.186c0-.08-.023-.144-.069-.19s-.115-.069-.21-.069h-.282v.512zm2.13.309v.601h-.352v-1.706h.666c.128 0 .241.023.338.07a.523.523 0 0 1 .304.494c0 .167-.057.299-.172.396s-.272.144-.475.144h-.308zm0-.285h.314c.093 0 .164-.022.212-.066s.074-.106.074-.187c0-.084-.025-.151-.074-.203s-.117-.078-.204-.08h-.322v.536zM21 21.27h-.675v.457h.792v.282h-1.144v-1.706h1.141v.285h-.79v.407h.675v.275zm1.631-.682h-.523v1.421h-.352v-1.421h-.516v-.285h1.39v.285zm1.228.682h-.675v.457h.792v.282h-1.144v-1.706h1.141v.285h-.79v.407h.675v.275zm.955.115h-.28v.625h-.352v-1.706h.634c.202 0 .357.045.466.135s.164.217.164.381c0 .116-.025.214-.076.292s-.126.139-.229.185l.369.697v.016h-.377l-.32-.625zm-.28-.285h.284c.088 0 .157-.022.205-.067s.073-.107.073-.186c0-.08-.023-.144-.069-.19s-.115-.069-.21-.069h-.282v.512zm2.066.462c0-.066-.023-.117-.07-.152s-.131-.073-.253-.112a1.853 1.853 0 0 1-.289-.117c-.194-.105-.291-.246-.291-.423 0-.092.026-.174.077-.246s.127-.129.224-.17c.098-.041.207-.061.328-.061s.23.022.326.067a.495.495 0 0 1 .301.46h-.352c0-.078-.025-.139-.074-.182s-.118-.066-.207-.066c-.086 0-.153.018-.2.055s-.071.084-.071.143c0 .055.028.102.083.139s.139.073.247.105c.2.06.346.135.437.224s.137.2.137.333c0 .148-.056.264-.168.348s-.262.125-.451.125c-.131 0-.251-.024-.359-.071s-.19-.114-.247-.198a.51.51 0 0 1-.084-.291h.353c0 .188.113.282.338.282.084 0 .149-.017.196-.05s.07-.082.07-.143z"/></symbol><symbol id="icon-group-4" viewBox="0 0 32 32"><path fill="#afb1b8" style="fill:var(--color4, #afb1b8)" d="M2.434 24.557a.852.852 0 0 1 .188.548.862.862 0 0 1-.291.692 1.258 1.258 0 0 1-.845.253H0v-3.474h1.455c.287-.019.572.062.806.231a.793.793 0 0 1 .282.65.8.8 0 0 1-.169.531.784.784 0 0 1-.443.271.842.842 0 0 1 .502.297zm-1.743-.524h.622a.587.587 0 0 0 .396-.115.41.41 0 0 0 .133-.339.433.433 0 0 0-.132-.34.6.6 0 0 0-.407-.117H.691v.911zm1.079 1.332c.05-.044.089-.098.115-.159s.037-.128.032-.194a.44.44 0 0 0-.151-.357.642.642 0 0 0-.423-.126H.691v.955h.661a.652.652 0 0 0 .417-.12zM5.409 26.051l-.81-1.358h-.304v1.358h-.696v-3.474h1.318c.332-.023.661.082.918.295a1.113 1.113 0 0 1 .098 1.438 1.07 1.07 0 0 1-.629.353l.862 1.388h-.757zM4.295 24.22h.57c.396 0 .593-.175.593-.526a.517.517 0 0 0-.146-.39.618.618 0 0 0-.448-.141h-.576l.007 1.057zM9.215 25.352H7.827l-.245.699h-.73l1.274-3.435h.789l1.269 3.435h-.73l-.24-.699zm-.186-.526-.507-1.466-.507 1.466h1.014zM13.98 26.051h-.691l-1.55-2.362v2.362h-.69v-3.474h.69l1.55 2.376v-2.376h.691v3.474zM17.925 25.219a1.501 1.501 0 0 1-.625.613 2.025 2.025 0 0 1-.972.219h-1.231v-3.474h1.231c.336-.009.67.065.972.214.265.134.483.345.625.606a2.032 2.032 0 0 1 0 1.822zm-.791-.083a1.278 1.278 0 0 0 0-1.658 1.196 1.196 0 0 0-.865-.295h-.48v2.249h.48c.316.02.627-.086.865-.295zM9.648 3.254s8.923 3.382 8.734 8.277v8.278s-8.916-3.384-8.73-8.278l-.003-8.277zM26.331 17.871A12.198 12.198 0 0 1 32 15.773v-2.591a11.639 11.639 0 0 0-5.669 4.689z"/><path fill="#afb1b8" style="fill:var(--color4, #afb1b8)" d="M25.318 18.652A12.14 12.14 0 0 1 32 12.639V5.172S19.293 9.99 19.561 16.96v11.786s.566-.215 1.457-.619c0-.377 0-.757.041-1.139a12.261 12.261 0 0 1 4.259-8.336z"/><path fill="#afb1b8" style="fill:var(--color4, #afb1b8)" d="M24.11 23.03c.067-.817.216-1.626.445-2.413a11.41 11.41 0 0 0-2.691 7.119 36.68 36.68 0 0 0 2.444-1.293 12.251 12.251 0 0 1-.198-3.413zM24.615 23.073a11.682 11.682 0 0 0 .157 3.09c3.472-2.086 7.373-5.308 7.222-9.203v-.339a11.372 11.372 0 0 0-6.605 3.099 11.679 11.679 0 0 0-.774 3.353z"/></symbol><symbol id="icon-group-5" viewBox="0 0 32 32"><path fill="#afb1b8" style="fill:var(--color4, #afb1b8)" d="M16.086 15.408a1.174 1.174 0 0 1-.205-.74v-1.072c0-.329.068-.579.204-.749s.369-.256.701-.255c.311 0 .532.073.663.218a.947.947 0 0 1 .196.641v.252h-.557v-.255a1.394 1.394 0 0 0-.016-.25.242.242 0 0 0-.08-.148.3.3 0 0 0-.202-.058.319.319 0 0 0-.212.061.291.291 0 0 0-.092.164 1.388 1.388 0 0 0-.022.265v1.301a.72.72 0 0 0 .071.365.27.27 0 0 0 .255.11.283.283 0 0 0 .197-.059.269.269 0 0 0 .083-.158 1.52 1.52 0 0 0 .017-.261v-.264h.557v.241c.016.239-.052.476-.192.674-.128.159-.346.239-.666.239s-.562-.085-.699-.262zM18.404 15.419c-.141-.167-.211-.41-.211-.732v-1.128c0-.319.07-.56.211-.723s.376-.245.705-.244c.327 0 .561.081.702.244s.212.405.212.723v1.128c0 .319-.071.563-.214.731s-.376.252-.699.252-.564-.085-.705-.251zm.965-.271a.69.69 0 0 0 .067-.334v-1.381a.66.66 0 0 0-.066-.327c-.028-.039-.068-.071-.114-.09s-.097-.026-.147-.019c-.05-.007-.101 0-.147.019s-.086.05-.114.09a.642.642 0 0 0-.067.327v1.388a.668.668 0 0 0 .067.334.348.348 0 0 0 .26.112.37.37 0 0 0 .143-.029.337.337 0 0 0 .117-.083v-.007zM20.692 12.624h.599l.451 2.081.461-2.081h.583l.059 3.004h-.431l-.046-2.088-.445 2.088h-.346l-.461-2.095-.043 2.095h-.436l.054-3.004zM23.517 12.624h.933c.538 0 .807.284.807.853 0 .545-.283.817-.849.816h-.318v1.335h-.576l.003-3.004zm.797 1.284a.418.418 0 0 0 .316-.094.524.524 0 0 0 .083-.339 1.006 1.006 0 0 0-.028-.273.228.228 0 0 0-.115-.142.55.55 0 0 0-.257-.048h-.224v.898h.224zM26.087 12.624h.619l.635 3.004h-.537l-.126-.693h-.552l-.129.693h-.545l.635-3.004zm.529 1.964-.215-1.261-.215 1.261h.431zM27.854 12.624h.403l.772 1.714v-1.714h.478v3.004h-.384l-.777-1.789v1.789h-.494l.001-3.004zM30.628 14.483l-.642-1.854h.54l.392 1.191.368-1.191h.529l-.634 1.854v1.145h-.553v-1.145zM16.976 16.942v.157h-.47v1.221h-.197v-1.221h-.472v-.157h1.14zM18.45 18.32h-.152a.066.066 0 0 1-.043-.013.066.066 0 0 1-.025-.032l-.136-.327h-.652l-.136.327a.091.091 0 0 1-.021.037.065.065 0 0 1-.043.013h-.152l.576-1.378h.201l.583 1.372zm-.954-.512h.544l-.23-.561a1.164 1.164 0 0 1-.043-.13l-.022.073-.021.058-.228.56zM19.443 18.184a.973.973 0 0 0 .108 0 .708.708 0 0 0 .252-.075v-.31h-.23c-.006 0-.011 0-.017-.002s-.01-.005-.014-.009c-.004-.003-.007-.007-.009-.011s-.003-.009-.003-.014v-.106h.447v.528a.77.77 0 0 1-.243.112.873.873 0 0 1-.144.028 1.576 1.576 0 0 1-.168.009.817.817 0 0 1-.29-.051.694.694 0 0 1-.23-.144.672.672 0 0 1-.202-.504.769.769 0 0 1 .052-.288c.033-.082.084-.156.149-.218s.144-.111.23-.143a.876.876 0 0 1 .309-.051c.054 0 .107.004.16.012a.706.706 0 0 1 .352.162l-.055.085c-.004.008-.011.014-.019.019s-.017.007-.026.007a.066.066 0 0 1-.036-.011.73.73 0 0 1-.056-.033.42.42 0 0 0-.077-.037.76.76 0 0 0-.106-.031.89.89 0 0 0-.146-.012.621.621 0 0 0-.222.038.478.478 0 0 0-.169.109.488.488 0 0 0-.107.171.695.695 0 0 0 0 .459.497.497 0 0 0 .283.282.586.586 0 0 0 .228.027zM21.28 18.162h.629v.157h-.822v-1.378h.197l-.005 1.221zM22.564 18.319h-.197v-1.378h.197v1.378zM23.297 16.948a.091.091 0 0 1 .03.025l.842 1.039a.4.4 0 0 1 0-.049v-1.027h.172v1.383h-.099a.092.092 0 0 1-.043-.008.113.113 0 0 1-.031-.026l-.841-1.037v1.072h-.165v-1.378h.103c.011 0 .022.002.032.007zM25.792 16.942v.152h-.698v.455h.566v.146h-.566v.47h.698v.152h-.901v-1.375h.901zM5.143 8.433l8.75 2.352v8.242l-8.75-2.351V8.433zm-.561-.703v9.346l9.871 2.654v-9.345L4.582 7.73z"/><path fill="#afb1b8" style="fill:var(--color4, #afb1b8)" d="M9.872 24.068 0 21.412v-9.345l9.872 2.655v9.346z"/><path fill="#afb1b8" style="fill:var(--color4, #afb1b8)" d="m4.745 8.327 8.636 2.322-3.672 3.478-8.637-2.324 3.674-3.477zm-.163-.597L0 12.067l9.872 2.655 4.581-4.337L4.582 7.73zM10.427 23.543l4.025-3.811-4.025-1.083v4.895z"/></symbol><symbol id="icon-principle_antend" viewBox="0 0 30 32"><path fill="#212121" style="fill:var(--color2, #212121)" d="m29.859 22.098-8.443-8.505.937-4.615c.242.094.499.144.758.146h.006a2.159 2.159 0 1 0-2.008-1.435l-4.96.605L8.058.161a.534.534 0 0 0-.377-.16.532.532 0 0 0-.373.155L5.795 1.66a.534.534 0 0 0 0 .754l.814.826a14.943 14.943 0 0 0 2.519 17.663.513.513 0 0 0 .146.098c-.034.18-.051.364-.052.547v6.187h-6.4a2.67 2.67 0 0 0-2.667 2.667v1.067c0 .295.239.533.533.533h24.533a.533.533 0 0 0 .533-.533v-1.067a2.67 2.67 0 0 0-2.667-2.667h-6.4v-2.742a15.09 15.09 0 0 0 3.049.32 14.854 14.854 0 0 0 7.04-1.783l.818.823a.534.534 0 0 0 .377.16.532.532 0 0 0 .373-.155l1.513-1.504a.534.534 0 0 0 0-.754zM22.365 6.233a1.066 1.066 0 1 1 .752 1.822h-.003a1.067 1.067 0 0 1-.747-1.823h-.002zM21.11 9.738l-.598 2.946-1.175-1.182 1.774-1.763zm-.606-.902-1.92 1.909-1.485-1.493 3.405-.415zM23.09 28.8a1.6 1.6 0 0 1 1.6 1.6v.533H1.223V30.4a1.6 1.6 0 0 1 1.6-1.6H23.09zm-7.467-2.133v1.067H10.29v-1.067h5.333zM10.29 25.6v-4.053c0-1.294 1.196-2.347 2.667-2.347s2.667 1.053 2.667 2.347V25.6h-5.333zm6.4-1.696v-2.357c0-1.882-1.675-3.413-3.733-3.413a3.8 3.8 0 0 0-3.281 1.786A13.87 13.87 0 0 1 7.397 4.033l18.602 18.708a13.818 13.818 0 0 1-9.309 1.163zm11.289-.684L6.922 2.039l.755-.752 7.935 7.98c.004 0 .006.007.01.01l13.115 13.191-.757.752z"/><path fill="#2196f3" style="fill:var(--color1, #2196f3)" d="M12.961 20.267h-.005a1.6 1.6 0 1 0-.004 3.2h.005a1.6 1.6 0 1 0 .004-3.2zm.374 1.978a.534.534 0 1 1-.379-.911.532.532 0 0 1 .373.911h.005z"/></symbol><symbol id="icon-icon-check" viewBox="0 0 32 32"><path fill="#2196f3" style="fill:var(--color1, #2196f3)" d="M4 1h24a4 4 0 0 1 4 4v22a4 4 0 0 1-4 4H4a4 4 0 0 1-4-4V5a4 4 0 0 1 4-4z"/><path fill="#fff" style="fill:var(--color5, #fff);stroke:var(--color5, #fff)" stroke="#fff" stroke-width=".4" d="m7.914 16.503-.138-.131-2.067 1.958 7.282 6.947 15.298-14.594-2.053-1.959-13.245 12.623-5.077-4.844z"/></symbol><symbol id="icon-instagram" viewBox="0 0 32 32"><path fill="#afb1b8" style="fill:var(--color4, #afb1b8)" d="M31.969 9.408c-.075-1.7-.35-2.869-.744-3.882a7.806 7.806 0 0 0-1.851-2.838A7.867 7.867 0 0 0 26.542.844C25.523.45 24.36.175 22.66.1 20.947.019 20.403 0 16.059 0s-4.888.019-6.595.094c-1.7.075-2.869.35-3.882.744a7.803 7.803 0 0 0-2.838 1.85A7.867 7.867 0 0 0 .9 5.52C.506 6.539.231 7.702.156 9.402c-.081 1.713-.1 2.257-.1 6.601s.019 4.888.094 6.595c.075 1.7.35 2.869.744 3.882a7.895 7.895 0 0 0 1.85 2.838 7.867 7.867 0 0 0 2.832 1.844c1.019.394 2.182.669 3.882.744 1.706.075 2.25.094 6.595.094s4.888-.019 6.595-.094c1.7-.075 2.869-.35 3.882-.744a8.184 8.184 0 0 0 4.682-4.682c.394-1.019.669-2.182.744-3.882.075-1.707.094-2.251.094-6.595s-.006-4.888-.081-6.595zm-2.882 13.065c-.069 1.563-.331 2.407-.55 2.969a5.31 5.31 0 0 1-3.038 3.038c-.563.219-1.413.481-2.969.55-1.688.075-2.194.094-6.464.094s-4.782-.019-6.464-.094c-1.563-.069-2.407-.331-2.969-.55a4.926 4.926 0 0 1-1.838-1.194 4.974 4.974 0 0 1-1.194-1.838c-.219-.563-.481-1.413-.55-2.969-.075-1.688-.094-2.194-.094-6.464s.019-4.782.094-6.464c.069-1.563.331-2.407.55-2.969a4.868 4.868 0 0 1 1.2-1.838A4.974 4.974 0 0 1 6.639 3.55c.563-.219 1.413-.481 2.969-.55 1.688-.075 2.194-.094 6.464-.094 4.276 0 4.782.019 6.464.094 1.563.069 2.407.331 2.969.55a4.914 4.914 0 0 1 1.838 1.194 4.974 4.974 0 0 1 1.194 1.838c.219.563.481 1.413.55 2.969.075 1.688.094 2.194.094 6.464s-.019 4.77-.094 6.458z"/><path fill="#afb1b8" style="fill:var(--color4, #afb1b8)" d="M16.059 7.783c-4.538 0-8.22 3.682-8.22 8.22s3.682 8.22 8.22 8.22c4.539 0 8.22-3.682 8.22-8.22s-3.682-8.22-8.22-8.22zm0 13.552a5.333 5.333 0 0 1 0-10.664 5.333 5.333 0 0 1 0 10.664zM26.524 7.458a1.919 1.919 0 1 1-3.838 0 1.919 1.919 0 0 1 3.838 0z"/></symbol><symbol id="icon-linkedin" viewBox="0 0 32 32"><path fill="#afb1b8" style="fill:var(--color4, #afb1b8)" d="M31.992 32v-.001H32V20.263c0-5.741-1.236-10.164-7.948-10.164-3.227 0-5.392 1.771-6.276 3.449h-.093v-2.913h-6.364v21.364h6.627V21.42c0-2.785.528-5.479 3.977-5.479 3.399 0 3.449 3.179 3.449 5.657v10.401h6.62zM.528 10.636h6.635V32H.528V10.636zM3.843 0C1.722 0 0 1.721 0 3.843s1.721 3.879 3.843 3.879c2.121 0 3.843-1.757 3.843-3.879A3.846 3.846 0 0 0 3.843 0z"/></symbol><symbol id="icon-group-6" viewBox="0 0 32 32"><path fill="#afb1b8" style="fill:var(--color4, #afb1b8)" d="M11.576 22.278c.005 0 .009.001.013.003s.008.004.011.008l.062.065a.507.507 0 0 1-.175.124.634.634 0 0 1-.248.044.616.616 0 0 1-.233-.041.499.499 0 0 1-.288-.298.678.678 0 0 1 .003-.464.545.545 0 0 1 .12-.181.556.556 0 0 1 .186-.118.673.673 0 0 1 .24-.041.585.585 0 0 1 .223.038.587.587 0 0 1 .167.104l-.052.07a.08.08 0 0 1-.013.013c-.006.004-.014.006-.021.005s-.016-.003-.023-.007l-.028-.018-.039-.024a.435.435 0 0 0-.215-.048.456.456 0 0 0-.172.031.392.392 0 0 0-.135.087.4.4 0 0 0-.088.139.502.502 0 0 0-.032.184.513.513 0 0 0 .032.186.406.406 0 0 0 .086.138c.036.038.08.067.129.086.051.02.105.03.16.03a.757.757 0 0 0 .095-.006.354.354 0 0 0 .205-.096.05.05 0 0 1 .03-.012zM13.37 21.95a.601.601 0 0 1-.042.23.521.521 0 0 1-.301.296.696.696 0 0 1-.472 0 .53.53 0 0 1-.3-.298.654.654 0 0 1 0-.461.555.555 0 0 1 .118-.181.536.536 0 0 1 .182-.113.684.684 0 0 1 .472 0 .51.51 0 0 1 .3.296.615.615 0 0 1 .042.232zm-.163 0a.532.532 0 0 0-.03-.185.354.354 0 0 0-.214-.225.505.505 0 0 0-.343 0 .354.354 0 0 0-.131.087.386.386 0 0 0-.084.138c-.04.12-.04.25 0 .37a.367.367 0 0 0 .215.225.517.517 0 0 0 .343 0 .354.354 0 0 0 .214-.225.532.532 0 0 0 .03-.185zM14.594 22.144l.016.041.018-.041.02-.041.397-.687c.008-.012.015-.019.023-.021a.124.124 0 0 1 .033-.004h.117v1.118h-.139v-.895l-.399.697a.061.061 0 0 1-.057.034H14.6c-.012 0-.024-.003-.034-.009s-.018-.015-.023-.026l-.411-.701v.897h-.134V21.39h.117a.093.093 0 0 1 .033.004.05.05 0 0 1 .022.021l.405.688a.214.214 0 0 1 .02.04zM16.087 22.089v.419h-.155v-1.116h.346a.695.695 0 0 1 .193.024c.05.014.097.037.137.07.034.03.061.068.078.11a.37.37 0 0 1 .026.143.336.336 0 0 1-.029.143.307.307 0 0 1-.084.112.38.38 0 0 1-.137.074.621.621 0 0 1-.187.026l-.188-.003zm0-.12h.188a.405.405 0 0 0 .12-.017.255.255 0 0 0 .087-.048.206.206 0 0 0 .053-.074.236.236 0 0 0 .019-.094c.002-.031-.003-.062-.016-.091s-.031-.055-.054-.076a.31.31 0 0 0-.209-.06h-.188v.46zM18.174 22.509h-.123c-.012 0-.024-.003-.034-.01s-.016-.016-.02-.026l-.106-.27h-.53l-.11.27a.06.06 0 0 1-.019.025.05.05 0 0 1-.035.011h-.123l.466-1.118h.162l.472 1.118zm-.769-.415h.438l-.185-.455a.76.76 0 0 1-.035-.105l-.018.058c-.005.018-.012.034-.017.047l-.183.454zM18.845 21.396a.074.074 0 0 1 .023.02l.679.843v-.868h.139v1.118h-.078c-.011 0-.022-.002-.032-.007s-.018-.012-.025-.021l-.679-.842v.869h-.139V21.39h.082c.01 0 .019.002.028.005zM20.831 22.064v.444h-.155v-.444l-.429-.673h.139a.048.048 0 0 1 .033.01.1.1 0 0 1 .021.025l.269.434a.536.536 0 0 1 .047.099l.02-.048a.406.406 0 0 1 .026-.051l.265-.437a.116.116 0 0 1 .02-.024.044.044 0 0 1 .033-.011h.141l-.43.676zM14.517 19.515c.068.008.136.015.205.021 1.048-.447 1.934-1.177 2.548-2.101s.929-2 .905-3.093l-1.155-1.1c.235 1.164.125 2.367-.317 3.475s-1.199 2.077-2.186 2.798z"/><path fill="#afb1b8" style="fill:var(--color4, #afb1b8)" d="m14.104 19.464.031.006c1.055-.719 1.859-1.723 2.309-2.882s.524-2.42.213-3.62l-1.645-1.567c.665 1.288.933 2.729.772 4.156s-.744 2.782-1.681 3.906zM19.682 15.634a5.67 5.67 0 0 1-1.935 3.089 6.117 6.117 0 0 1-.919.629c.796-.223 1.527-.617 2.137-1.151s1.084-1.196 1.384-1.932l-.667-.635z"/><path fill="#afb1b8" style="fill:var(--color4, #afb1b8)" d="m19.42 15.457-.95-.905c-.018 1.032-.326 2.04-.891 2.92s-1.368 1.599-2.324 2.084h.005c.213 0 .426-.012.637-.036.894-.347 1.683-.9 2.298-1.609s1.036-1.552 1.225-2.453zM14.242 10.741 13.109 9.66c-1.013.373-1.884 1.028-2.499 1.881s-.946 1.862-.949 2.896c.004 1.143.408 2.252 1.148 3.152s1.774 1.539 2.938 1.816c1.039-1.206 1.647-2.696 1.737-4.255s-.345-3.103-1.24-4.409zM22.038 15.29c-.004-1.356-.571-2.656-1.578-3.615s-2.37-1.499-3.794-1.503a5.538 5.538 0 0 0-1.923.341l6.936 6.609a4.85 4.85 0 0 0 .359-1.832z"/></symbol><symbol id="icon-header-button__menu" viewBox="0 0 32 32"><path d="M0 8.889V5.333h32v3.556H0zm0 8.889h32v-3.556H0v3.556zm0 8.889h32v-3.556H0v3.556z"/></symbol><symbol id="icon-modal_icon--person" viewBox="0 0 32 32"><path d="M16 16c2.947 0 5.333-2.387 5.333-5.333S18.946 5.334 16 5.334c-2.947 0-5.333 2.387-5.333 5.333S13.054 16 16 16zm0 2.667c-3.56 0-10.667 1.787-10.667 5.333v1.333c0 .733.6 1.333 1.333 1.333h18.667c.733 0 1.333-.6 1.333-1.333V24c0-3.547-7.107-5.333-10.667-5.333z"/></symbol><symbol id="icon-modal_icon--phone" viewBox="0 0 32 32"><path d="m24.881 19.774-3.268-.373a2.561 2.561 0 0 0-2.11.733l-2.367 2.367a19.357 19.357 0 0 1-8.478-8.478l2.38-2.38a2.561 2.561 0 0 0 .733-2.11l-.373-3.242a2.575 2.575 0 0 0-2.56-2.277H6.612c-1.454 0-2.663 1.209-2.573 2.663.682 10.987 9.469 19.761 20.443 20.443 1.454.09 2.663-1.119 2.663-2.573v-2.226a2.55 2.55 0 0 0-2.264-2.547z"/></symbol><symbol id="icon-twitter" viewBox="0 0 32 32"><path fill="#afb1b8" style="fill:var(--color4, #afb1b8)" d="M32 6.078c-1.19.522-2.458.868-3.78 1.036a6.523 6.523 0 0 0 2.886-3.626 13.11 13.11 0 0 1-4.16 1.588A6.574 6.574 0 0 0 22.154 3c-3.632 0-6.556 2.948-6.556 6.562 0 .52.044 1.02.152 1.496-5.454-.266-10.28-2.88-13.522-6.862a6.605 6.605 0 0 0-.898 3.316 6.57 6.57 0 0 0 2.914 5.452 6.479 6.479 0 0 1-2.964-.808v.072c0 3.188 2.274 5.836 5.256 6.446a6.548 6.548 0 0 1-1.72.216 5.8 5.8 0 0 1-1.242-.112c.85 2.598 3.262 4.508 6.13 4.57a13.182 13.182 0 0 1-8.134 2.798c-.538 0-1.054-.024-1.57-.09A18.469 18.469 0 0 0 10.064 29c12.072 0 18.672-10 18.672-18.668 0-.29-.01-.57-.024-.848A13.087 13.087 0 0 0 32 6.078z"/></symbol><symbol id="icon-principle_pc" viewBox="0 0 32 32"><path d="M1.599 28.291h25.587a1.6 1.6 0 0 0 1.599-1.599V24.56a1.6 1.6 0 0 0-1.599-1.599h-.533V9.668L29.681 6.8a1.608 1.608 0 1 0-.746-.763L26.654 8.2V6.97a1.6 1.6 0 0 0-1.599-1.599H3.733A1.6 1.6 0 0 0 2.134 6.97v15.992h-.533a1.6 1.6 0 0 0-1.599 1.599v2.132a1.6 1.6 0 0 0 1.599 1.599zM30.384 4.837a.533.533 0 1 1 0 1.067.533.533 0 0 1 0-1.067zM3.198 6.969c0-.294.239-.533.533-.533h21.322c.294 0 .533.239.533.533v2.239l-1.066 1.013V8.035a.533.533 0 0 0-.533-.533H4.797a.533.533 0 0 0-.533.533v13.326c0 .294.239.533.533.533h19.19a.533.533 0 0 0 .533-.533v-9.674l1.066-1.01v12.284H3.198V6.969zm4.798 6.929a1.598 1.598 0 1 0 1.107 2.749l1.853.93a.532.532 0 0 0 .636-.123l3.939-4.431 3.872 2.901a.533.533 0 0 0 .686-.039l3.365-3.188v8.131H5.33V8.568h18.124v2.66L19.683 14.8l-3.904-2.927a.533.533 0 0 0-.718.072l-3.993 4.493-1.493-.746c.011-.064.018-.129.02-.193A1.6 1.6 0 0 0 7.996 13.9zm.533 1.6a.533.533 0 1 1-1.067 0 .533.533 0 0 1 1.067 0zm3.198 8.528h5.331v.533a.533.533 0 0 1-.533.533h-4.264a.533.533 0 0 1-.533-.533v-.533zm-10.661.534c0-.294.239-.533.533-.533h9.062v.533a1.6 1.6 0 0 0 1.599 1.599h4.264a1.6 1.6 0 0 0 1.599-1.599v-.533h9.062c.294 0 .533.239.533.533v2.132a.533.533 0 0 1-.533.533H1.598a.533.533 0 0 1-.533-.533V24.56z"/></symbol><symbol id="icon-modal_envelope" viewBox="0 0 32 32"><path d="M28 4H4a2.996 2.996 0 0 0-2.985 3L1 25c0 1.65 1.35 3 3 3h24c1.65 0 3-1.35 3-3V7c0-1.65-1.35-3-3-3zm-.6 6.375-10.605 6.63c-.48.3-1.11.3-1.59 0L4.6 10.375c-.375-.24-.6-.645-.6-1.08C4 8.29 5.095 7.69 5.95 8.215L16 14.5l10.05-6.285c.855-.525 1.95.075 1.95 1.08 0 .435-.225.84-.6 1.08z"/></symbol><symbol id="icon-modal-phone" viewBox="0 0 32 32"><path d="m27.419 20.852-4.202-.48a3.294 3.294 0 0 0-2.713.943l-3.044 3.044A24.888 24.888 0 0 1 6.559 13.458l3.06-3.06a3.293 3.293 0 0 0 .943-2.713l-.48-4.168A3.31 3.31 0 0 0 6.79.589H3.928C2.059.589.504 2.144.62 4.013c.877 14.126 12.174 25.408 26.284 26.284 1.869.116 3.424-1.439 3.424-3.308v-2.861c.016-1.671-1.241-3.077-2.911-3.275z"/></symbol><symbol id="icon-modal_man" viewBox="0 0 32 32"><path d="M16 16c4.42 0 8-3.58 8-8s-3.58-8-8-8-8 3.58-8 8 3.58 8 8 8zm0 4c-5.34 0-16 2.68-16 8v2c0 1.1.9 2 2 2h28c1.1 0 2-.9 2-2v-2c0-5.32-10.66-8-16-8z"/></symbol><symbol id="icon-modal_square--no-agree" viewBox="0 0 32 32"><path d="M28.444 4.333v23.333H3.555V4.333h24.889zm0-3.333H3.555C1.599 1-.001 2.5-.001 4.333v23.333c0 1.833 1.6 3.333 3.556 3.333h24.889c1.956 0 3.556-1.5 3.556-3.333V4.333C32 2.5 30.4 1 28.444 1z"/></symbol><symbol id="icon-header-phone" viewBox="0 0 32 32"><path fill="#757575" style="fill:var(--color3, #757575)" d="M24 0H8C6.109 0 4.571 1.346 4.571 3v26c0 1.654 1.538 3 3.429 3h16c1.891 0 3.429-1.346 3.429-3V3c0-1.654-1.538-3-3.429-3zM8 2h16c.631 0 1.143.448 1.143 1v21H6.857V3c0-.552.512-1 1.143-1zm16 28H8c-.631 0-1.143-.448-1.143-1v-3h18.286v3c0 .552-.512 1-1.143 1z"/></symbol><symbol id="icon-principle_clock" viewBox="0 0 31 32"><path d="M30.84 15.301C30.838 6.849 23.985-.002 15.532 0S.229 6.855.231 15.308A15.304 15.304 0 0 0 10.88 29.884a.662.662 0 0 0 .529-.065.637.637 0 0 0 .283-.356l3.865-12.25a1.912 1.912 0 1 0-.84-3.635L9.611 8.471a.637.637 0 0 0-.902.902l5.103 5.109a1.876 1.876 0 0 0 .536 2.309l-3.683 11.673C3.387 25.783-.339 17.71 2.342 10.432S13.096-.572 20.374 2.109s11.004 10.754 8.323 18.032a14.042 14.042 0 0 1-7.462 7.973l-.398-1.874a.638.638 0 0 0-1.048-.344l-3.837 3.426a.637.637 0 0 0 .231 1.084l4.899 1.563a.638.638 0 0 0 .819-.74l-.391-1.839a15.255 15.255 0 0 0 9.329-14.089zm-15.305-.637a.638.638 0 1 1 0 1.277.638.638 0 0 1 0-1.277zm2.1 14.864 2.184-1.948.603 2.84-2.787-.892z"/></symbol></defs></svg>